<?xml version="1.0" standalone="no"?>
<!DOCTYPE svg PUBLIC "-//W3C//DTD SVG 1.1//EN" "http://www.w3.org/Graphics/SVG/1.1/DTD/svg11.dtd" >
<svg xmlns="http://www.w3.org/2000/svg">
<metadata></metadata>
<defs>
<font id="neon_80sregular" horiz-adv-x="1202" >
<font-face units-per-em="2048" ascent="1638" descent="-410" />
<missing-glyph horiz-adv-x="597" />
<glyph horiz-adv-x="0" />
<glyph unicode="&#xd;" horiz-adv-x="597" />
<glyph unicode=" "  horiz-adv-x="597" />
<glyph unicode="&#x09;" horiz-adv-x="597" />
<glyph unicode="&#xa0;" horiz-adv-x="597" />
<glyph unicode="!" horiz-adv-x="401" d="M100 102q0 42 30 72t72 30t72 -30t30 -72t-30 -72t-72 -30t-72 30t-30 72zM100 502v840q0 42 30 72t72 30t72 -30t30 -72v-840q0 -42 -30 -72t-72 -30t-72 30t-30 72z" />
<glyph unicode="&#x22;" horiz-adv-x="731" d="M100 1220v110q0 42 29.5 72t72.5 30q42 0 72 -30t30 -72v-110q0 -42 -30 -72t-72 -30q-43 0 -72.5 30t-29.5 72zM425 1220v110q0 42 29.5 72t72.5 30q42 0 72 -30t30 -72v-110q0 -42 -30 -72t-72 -30q-43 0 -72.5 30t-29.5 72z" />
<glyph unicode="#" horiz-adv-x="1603" d="M100 500q0 41 29.5 70.5t70.5 29.5h214l83 300h-197q-41 0 -70.5 29t-29.5 71q0 41 29.5 70.5t70.5 29.5h253l98 351q5 31 28 54q29 29 71 29q41 0 70.5 -29t29.5 -71q0 -14 -3 -27l-86 -307h292l98 351q5 31 28 54q29 29 71 29q41 0 70.5 -29t29.5 -71q0 -14 -3 -27 l-86 -307h139q42 0 71 -29.5t29 -70.5q0 -42 -29 -71t-71 -29h-195l-84 -300h179q42 0 71 -29.5t29 -70.5q0 -42 -29 -71t-71 -29h-235l-117 -418q-5 -30 -27 -52q-30 -30 -71 -30q-42 0 -71 29.5t-29 70.5q0 21 7 39l101 361h-293l-117 -418q-5 -30 -27 -52 q-30 -30 -71 -30q-42 0 -71 29.5t-29 70.5q0 21 7 39l101 361h-158q-41 0 -70.5 29t-29.5 71zM621 600h293l83 300h-292z" />
<glyph unicode="$" d="M100 500q0 41 29 70.5t71 29.5q41 0 70.5 -29.5t29.5 -70.5q0 -124 88 -212q46 -47 104 -69v599q-64 23 -115 75q-92 92 -92 222q0 131 92 223q51 51 115 74v90q0 42 30 72t72 30t72 -30t30 -72v-86q62 -20 114 -66q5 -4 11 -9q29 -30 29 -71q0 -42 -29.5 -71t-70.5 -29 q-30 0 -54 15v-193q146 -27 258 -138q146 -147 146 -354t-146 -353q-112 -112 -258 -139v-96q0 -42 -30 -72t-72 -30t-72 30t-30 72v99q-139 29 -246 136q-146 146 -146 353zM485 1115q0 -22 7 -41v82q-7 -19 -7 -41zM696 215q64 21 116 73q88 88 88 212t-88 212 q-52 52 -116 73v-570z" />
<glyph unicode="%" horiz-adv-x="1610" d="M100 145q0 42 30 72l1124 1124q30 30 73 30q42 0 71 -30q30 -29 30 -71q0 -43 -30 -73l-1124 -1124q-30 -30 -72 -30q-43 0 -72 30q-30 29 -30 72zM100 1050q0 145 73.5 247.5t176.5 102.5q104 0 177 -102.5t73 -247.5t-73 -247.5t-177 -102.5q-103 0 -176.5 102.5 t-73.5 247.5zM300 1050q0 -62 14.5 -106t35.5 -44t35.5 44t14.5 106t-14.5 106t-35.5 44t-35.5 -44t-14.5 -106zM1000 375q0 145 73.5 247.5t176.5 102.5q104 0 177 -102.5t73 -247.5t-73 -247.5t-177 -102.5q-103 0 -176.5 102.5t-73.5 247.5zM1200 375q0 -62 14.5 -106 t35.5 -44t35.5 44t14.5 106t-14.5 106t-35.5 44t-35.5 -44t-14.5 -106z" />
<glyph unicode="&#x26;" horiz-adv-x="1399" d="M100 450q0 184 131 317q48 41 89 72l-40 40q-80 97 -80 221t88 212t212 88q125 0 212.5 -88t87.5 -212t-87 -212q-42 -45 -82 -78l319 -318l179 179h1q29 29 70 29q42 0 71 -29t29 -71q0 -41 -29 -70q-6 -6 -12 -11l-168 -168l180 -180q29 -29 29 -71q0 -41 -29 -70.5 t-71 -29.5q-41 0 -70 30l-1 -1l-180 180l-82 -78q-136 -131 -317 -131q-186 0 -318 132t-132 318zM300 450q0 -104 73.5 -177t176.5 -73q99 0 179 71l79 79l-347 348q-41 -31 -88 -72q-73 -75 -73 -176zM400 1100q0 -40 21 -80l70 -70q40 32 80 79q29 30 29 71t-29 70.5 t-71 29.5q-41 0 -70.5 -29.5t-29.5 -70.5z" />
<glyph unicode="'" horiz-adv-x="401" d="M100 1220v110q0 42 29.5 72t72.5 30q42 0 72 -30t30 -72v-110q0 -42 -30 -72t-72 -30q-43 0 -72.5 30t-29.5 72z" />
<glyph unicode="(" horiz-adv-x="619" d="M100 675q0 404 176 690q19 32 64 97q29 29 70 29q42 0 71 -29t29 -71q0 -41 -29 -70q-39 -49 -64 -98q-117 -227 -117 -548t117 -548q36 -70 94 -132q29 -30 29 -71q0 -42 -29.5 -71t-70.5 -29q-42 0 -71 29q-58 76 -93 133q-176 285 -176 689z" />
<glyph unicode=")" horiz-adv-x="633" d="M85 -76q0 -42 29.5 -71t70.5 -29q42 0 71 29q58 76 93 133q176 285 176 689t-176 690q-19 32 -64 97q-29 29 -70 29q-42 0 -71 -29t-29 -71q0 -41 29 -70q39 -49 64 -98q117 -227 117 -548t-117 -548q-36 -70 -94 -132q-29 -30 -29 -71z" />
<glyph unicode="*" horiz-adv-x="801" d="M100 1139q0 16 5 32q13 40 51 59q23 12 47 12q16 0 31 -5l68 -22v71q0 42 29.5 72t72.5 30q42 0 72 -30t30 -72v-71l68 22q16 5 31 5q24 0 47 -11q37 -19 51 -60q5 -16 5 -32q0 -23 -11 -46q-20 -38 -60 -50l-69 -22l43 -59q20 -27 20 -59q0 -8 -1 -16q-7 -42 -41 -67 q-27 -20 -58 -20q-9 0 -18 2q-42 7 -67 41l-42 58l-42 -58q-25 -34 -66 -41q-10 -2 -18 -2q-32 0 -59 20q-34 25 -40 67q-2 8 -2 16q0 32 20 59l43 59l-69 22q-40 12 -59 50q-12 22 -12 46z" />
<glyph unicode="+" horiz-adv-x="998" d="M197 696q0 42 29.5 72t72.5 30h98v98q0 42 29.5 72t72.5 30q42 0 72 -30t30 -72v-98h98q42 0 72 -30t30 -72t-30 -72t-72 -30h-98v-98q0 -42 -30 -72t-72 -30q-43 0 -72.5 30t-29.5 72v98h-98q-43 0 -72.5 30t-29.5 72z" />
<glyph unicode="," horiz-adv-x="401" d="M55 14q0 1 1 2q0 42 29 71l78 78q30 30 72 30t72 -30t30 -72q0 -43 -30 -72l-77 -78q-30 -30 -72 -30q-43 0 -73 30t-30 71z" />
<glyph unicode="-" horiz-adv-x="801" d="M100 696q0 42 30 72t72 30h400q42 0 72 -30t30 -72t-30 -72t-72 -30h-400q-42 0 -72 30t-30 72z" />
<glyph unicode="." horiz-adv-x="401" d="M100 102q0 42 30 72t72 30t72 -30t30 -72t-30 -72t-72 -30t-72 30t-30 72z" />
<glyph unicode="/" horiz-adv-x="998" d="M0 20q0 25 14 49l795 1377q21 37 62 48q14 4 28 4q25 0 49 -14q37 -22 48 -62q4 -14 4 -28q0 -26 -14 -50l-795 -1377q-21 -36 -62 -47q-14 -4 -28 -4q-26 0 -50 14q-36 21 -47 62q-4 14 -4 28z" />
<glyph unicode="0" d="M100 700q0 290 146.5 495t353.5 205t353.5 -205t146.5 -495t-146.5 -495t-353.5 -205t-353.5 205t-146.5 495zM300 700q0 -207 88 -353.5t212 -146.5t212 146.5t88 353.5t-88 353.5t-212 146.5t-212 -146.5t-88 -353.5z" />
<glyph unicode="1" horiz-adv-x="612" d="M100 1102q0 42 30 72l200 196q30 24 72 24t72 -30t30 -72v-1190q0 -42 -30 -72t-72 -30t-72 30t-30 72v953l-26 -25q-30 -30 -72 -30t-72 30t-30 72z" />
<glyph unicode="2" horiz-adv-x="1097" d="M100 100q0 186 131.5 318t277 207t218.5 148.5t73 176.5q0 104 -73 177t-177 73q-103 0 -176.5 -73t-73.5 -177q0 -42 -29 -71t-71 -29q-41 0 -70.5 29t-29.5 71q0 187 132 318.5t318 131.5q187 0 318.5 -131.5t131.5 -318.5q0 -186 -131.5 -318t-277 -207t-218.5 -148 q-35 -35 -53 -77h580q41 0 70.5 -29.5t29.5 -70.5t-29.5 -70.5t-70.5 -29.5h-700q-42 0 -71 29.5t-29 70.5z" />
<glyph unicode="3" horiz-adv-x="1089" d="M100 227q0 42 29 71t71 29q41 0 71 -29q4 -4 7 -8l2 -2q87 -88 212 -88q124 0 212 88t88 212q0 125 -88 212.5t-212 87.5q-42 0 -71 29.5t-29 70.5q0 42 29 71t71 29t71 29.5t29 70.5q0 42 -29 71t-71 29q-41 0 -70 -29q-2 -1 -3 -2l-6 -6q-30 -30 -71 -30 q-42 0 -71 29.5t-29 70.5q0 42 29 71l7 7l2 2q87 87 212 87q124 0 212 -87.5t88 -212.5q0 -93 -50 -166q55 -32 104 -80q146 -147 146 -354t-146.5 -353.5t-353.5 -146.5t-353 147q-2 1 -4 3q-3 3 -6 7q-29 29 -29 70z" />
<glyph unicode="4" d="M100 500q0 34 20 60l600 800q4 5 10 11q29 29 70 29q42 0 71 -29.5t29 -70.5v-700h100q42 0 71 -29.5t29 -70.5q0 -42 -29 -71t-71 -29h-100v-300q0 -42 -29 -71t-71 -29q-41 0 -70.5 29t-29.5 71v300h-500q-41 0 -70.5 29t-29.5 71zM400 600h300v400z" />
<glyph unicode="5" d="M100 499v1q0 41 29 70.5t71 29.5q41 0 70.5 -29.5t29.5 -70.5h2q0 -123 87 -210t210 -87t209.5 87t86.5 210t-86.5 209.5t-209.5 86.5t-210 -86q-1 -1 -1 -2l-2 2q-13 -13 -30 -21q-22 -10 -44 -10q-17 0 -34 6q-40 15 -58 54q-10 21 -10 42q0 17 7 35l188 517 q14 40 46 55q27 12 50 12h397q42 0 72 -30t30 -72t-30 -72t-72 -30h-325l-76 -208q49 10 102 10q207 0 353 -146t146 -353t-146 -353t-353 -146t-353 146t-146 353z" />
<glyph unicode="6" d="M100 500q0 133 59 240l349 600q8 17 22 31q29 29 70 29q42 0 71 -29.5t29 -70.5q0 -28 -13 -50l-141 -253q26 3 54 3q207 0 353.5 -146t146.5 -354q0 -207 -146.5 -353.5t-353.5 -146.5q-208 0 -354 146.5t-146 353.5zM300 500q0 -124 87.5 -212t212.5 -88q124 0 212 88 t88 212q0 125 -88 212.5t-212 87.5q-125 0 -212.5 -87.5t-87.5 -212.5z" />
<glyph unicode="7" d="M100 1332q0 42 30 72t72 30h796q42 0 72 -30t30 -72q0 -17 -9 -38q-7 -16 -21 -30q-424 -496 -470 -1164q0 -42 -29 -71t-71 -29q-41 0 -70.5 29t-29.5 71q46 674 394 1134h-592q-42 0 -72 28t-30 70z" />
<glyph unicode="8" d="M100 500q0 207 147 354q48 48 102 80q-49 73 -49 166q0 125 87.5 212.5t212.5 87.5q124 0 212 -87.5t88 -212.5q0 -93 -50 -166q55 -32 104 -80q146 -147 146 -354t-146.5 -353.5t-353.5 -146.5t-353.5 146.5t-146.5 353.5zM300 500q0 -124 87.5 -212t212.5 -88 q124 0 212 88t88 212q0 125 -88 212.5t-212 87.5q-125 0 -212.5 -87.5t-87.5 -212.5zM500 1100q0 -41 29.5 -70.5t70.5 -29.5q42 0 71 29.5t29 70.5q0 42 -29 71t-71 29q-41 0 -70.5 -29t-29.5 -71z" />
<glyph unicode="9" d="M100 900q0 207 146.5 353.5t353.5 146.5q208 0 354 -146.5t146 -353.5q0 -133 -59 -240l-349 -600q-8 -17 -22 -31q-29 -29 -70 -29q-42 0 -71 29.5t-29 70.5q0 28 13 50l141 253q-26 -3 -54 -3q-207 0 -353.5 146t-146.5 354zM300 900q0 -125 88 -212.5t212 -87.5 q125 0 212.5 87.5t87.5 212.5q0 124 -87.5 212t-212.5 88q-124 0 -212 -88t-88 -212z" />
<glyph unicode=":" horiz-adv-x="401" d="M100 102q0 42 30 72t72 30t72 -30t30 -72t-30 -72t-72 -30t-72 30t-30 72zM100 902q0 42 30 72t72 30t72 -30t30 -72t-30 -72t-72 -30t-72 30t-30 72z" />
<glyph unicode=";" horiz-adv-x="401" d="M55 14q0 1 1 2q0 42 29 71l78 78q30 30 72 30t72 -30t30 -72q0 -43 -30 -72l-77 -78q-30 -30 -72 -30q-43 0 -73 30t-30 71zM100 902q0 42 30 72t72 30t72 -30t30 -72t-30 -72t-72 -30t-72 30t-30 72z" />
<glyph unicode="&#x3c;" horiz-adv-x="801" d="M100 700q0 41 29 71q12 12 26 19l400 200q20 10 45 10q41 0 70.5 -29.5t29.5 -70.5q0 -42 -29 -71q-18 -17 -39 -24l-209 -104l221 -111q14 -7 27 -19q29 -30 29 -71q0 -42 -29.5 -71t-70.5 -29q-32 0 -56 16l-378 189q-20 7 -37 24q-29 29 -29 71z" />
<glyph unicode="=" horiz-adv-x="801" d="M100 496q0 42 30 72t72 30h400q42 0 72 -30t30 -72t-30 -72t-72 -30h-400q-42 0 -72 30t-30 72zM100 896q0 42 30 72t72 30h400q42 0 72 -30t30 -72t-30 -72t-72 -30h-400q-42 0 -72 30t-30 72z" />
<glyph unicode="&#x3e;" horiz-adv-x="801" d="M100 500q0 -42 29.5 -71t70.5 -29q32 0 56 16l378 189q20 7 37 24q29 29 29 71q0 41 -29 71q-12 12 -26 19l-400 200q-20 10 -45 10q-41 0 -70.5 -29.5t-29.5 -70.5q0 -42 29 -71q18 -17 39 -24l209 -104l-221 -111q-14 -7 -27 -19q-29 -30 -29 -71z" />
<glyph unicode="?" horiz-adv-x="1026" d="M100 1016v1q0 173 122 295.5t295 122.5t295.5 -122.5t122.5 -295.5t-122 -295q-85 -84 -194 -110v-110q0 -42 -30 -72t-72 -30q-43 0 -72.5 30t-29.5 72v200q0 42 29.5 72t72.5 30q13 0 24 -3q75 8 130 63q64 63 64 153t-64 154t-154 64t-153.5 -64t-63.5 -154v-1 q0 -41 -29.5 -70.5t-70.5 -29.5t-70.5 29.5t-29.5 70.5zM415 102q0 42 30 72t72 30t72 -30t30 -72t-30 -72t-72 -30t-72 30t-30 72z" />
<glyph unicode="@" horiz-adv-x="1842" d="M100 717q0 338 239.5 577.5t577.5 239.5t577.5 -239.5t239.5 -577.5l2 -360q0 -118 -74 -187.5t-212 -69.5q-118 0 -187 69t-70 184v3q-118 -89 -269 -89q-186 0 -317.5 131.5t-131.5 317.5t131.5 317.5t317.5 131.5q187 0 318 -131q130 -130 131 -314v-363 q0 -24 17 -45.5t60 -21.5t62 21.5t19 45.5l-1 360q0 253 -180 433t-433 180q-255 0 -434 -180t-179 -433t179 -433t434 -180q42 0 72 -30t30 -72t-30 -72t-72 -30q-338 0 -577.5 239.5t-239.5 577.5zM658 717q0 -111 78 -189.5t188 -78.5q111 0 189 79q67 66 77 156v35 q0 8 1 16q-6 99 -78 170q-78 78 -189 78q-110 0 -188 -78t-78 -188z" />
<glyph unicode="A" horiz-adv-x="1603" d="M100 100q0 29 15 52l593 1222q7 16 21 30q29 30 71 30q41 0 71 -30q12 -12 19 -26l593 -1222q17 -24 17 -56q0 -41 -29.5 -70.5t-70.5 -29.5q-42 0 -71 29q-13 14 -20 29h-1l-166 342h-685l-166 -342q-7 -15 -20 -29q-30 -29 -71 -29q-42 0 -71 29.5t-29 70.5zM554 600 h491l-245 505z" />
<glyph unicode="B" horiz-adv-x="1097" d="M100 102v1230q0 42 30 72t72 30l298 1q130 0 222.5 -92t92.5 -222q0 -100 -54 -178q57 -33 107 -84q148 -147 148 -355q0 -209 -147.5 -356.5t-356.5 -147.5h-310q-42 0 -72 30t-30 72zM304 201h208q126 0 214.5 89t88.5 214q0 124 -88.5 213t-214.5 89h-208v-605z M304 1007h196q47 0 80 33t33 81q0 46 -33 79.5t-80 33.5h-196v-227z" />
<glyph unicode="C" horiz-adv-x="1399" d="M100 717q0 297 210 507t507 210q261 0 455 -162l-1 -1l2 -2q30 -30 30 -72t-30 -72t-72 -30t-72 30l-2 2l-1 -1q-133 104 -309 104q-213 0 -363 -150.5t-150 -362.5t150 -362.5t363 -150.5q176 0 309 104l1 -1l2 2q30 30 72 30t72 -30t30 -72t-30 -72l-2 -2l1 -1 q-194 -162 -455 -162q-297 0 -507 210t-210 507z" />
<glyph unicode="D" horiz-adv-x="1399" d="M100 102v1230q0 42 30 72t72 30h395q297 0 507 -210t210 -507t-210 -507t-507 -210h-395q-42 0 -72 30t-30 72zM304 204h293q212 0 362.5 150.5t150.5 362.5t-150.5 362.5t-362.5 150.5h-293v-1026z" />
<glyph unicode="E" horiz-adv-x="1174" d="M100 102v1230q0 42 30 72t72 30h790q42 0 72 -30t30 -72t-30 -72t-72 -30h-688v-226h298q42 0 72 -30t30 -72t-30 -72t-72 -30h-298v-596h688q42 0 72 -30t30 -72t-30 -72t-72 -30h-790q-42 0 -72 30t-30 72z" />
<glyph unicode="F" horiz-adv-x="1195" d="M100 102v1230q0 42 30 72t72 30h790q42 0 72 -30t30 -72t-30 -72t-72 -30h-688v-226h298q42 0 72 -30t30 -72t-30 -72t-72 -30h-298v-698q0 -42 -30 -72t-72 -30t-72 30t-30 72z" />
<glyph unicode="G" horiz-adv-x="1624" d="M100 717q0 297 210 507t507 210q261 0 455 -162l-1 -1l2 -2q30 -30 30 -72t-30 -72t-72 -30t-72 30l-2 2l-1 -1q-133 104 -309 104q-213 0 -363 -150.5t-150 -362.5t150 -362.5t363 -150.5q212 0 363 151q139 139 139 231q0 7 -1 14h-285q-42 0 -72 30t-30 72t30 72 t72 30h400q42 0 72 -30t30 -72q-1 -282 -211 -492t-507 -210t-507 210t-210 507z" />
<glyph unicode="H" horiz-adv-x="1399" d="M100 102v1230q0 42 30 72t72 30t72 -30t30 -72v-328h796v328q0 42 30 72t72 30t72 -30t30 -72v-1230q0 -42 -30 -72t-72 -30t-72 30t-30 72v698h-796v-698q0 -42 -30 -72t-72 -30t-72 30t-30 72z" />
<glyph unicode="I" horiz-adv-x="401" d="M100 102v1230q0 42 30 72t72 30t72 -30t30 -72v-1230q0 -42 -30 -72t-72 -30t-72 30t-30 72z" />
<glyph unicode="J" horiz-adv-x="401" d="M-513 -298q0 42 30 72t72 30q211 1 361 151t150 362v1015q0 42 30 72t72 30t72 -30t30 -72v-1015q0 -297 -210 -507q-209 -209 -504 -210h-1q-42 0 -72 30t-30 72z" />
<glyph unicode="K" horiz-adv-x="1300" d="M100 102v1230q0 42 30 72t72 30t72 -30t30 -72v-502l727 576q28 28 69 28t70.5 -29.5t29.5 -70.5q0 -42 -29 -71q-8 -8 -17 -13l-690 -548l696 -522q5 -4 11 -9q29 -30 29 -71q0 -42 -29.5 -71t-70.5 -29q-39 0 -67 26l-729 546v-470q0 -42 -30 -72t-72 -30t-72 30 t-30 72z" />
<glyph unicode="L" d="M100 102v1230q0 42 30 72t72 30t72 -30t30 -72v-1128h688q42 0 72 -30t30 -72t-30 -72t-72 -30h-790q-42 0 -72 30t-30 72z" />
<glyph unicode="M" horiz-adv-x="1603" d="M100 102v1230q0 42 30 72t72 30t72 -30q5 -5 9 -11l517 -460l533 475l1 -1q28 27 68 27q42 0 72 -30t30 -72v-1230q0 -42 -30 -72t-72 -30t-72 30t-30 72v1009l-433 -386q-29 -25 -67 -25q-41 0 -496 408v-1006q0 -42 -30 -72t-72 -30t-72 30t-30 72z" />
<glyph unicode="N" horiz-adv-x="1399" d="M100 102v1230q0 42 30 72t72 30t72 -30q12 -12 19 -26l807 -996v950q0 42 30 72t72 30t72 -30t30 -72v-1230q0 -42 -30 -72t-72 -30t-72 30q-4 4 -8 7l-818 1009v-944q0 -42 -30 -72t-72 -30t-72 30t-30 72z" />
<glyph unicode="O" horiz-adv-x="1624" d="M100 717q0 297 210 507t507 210t507 -210t210 -507t-210 -507t-507 -210t-507 210t-210 507zM304 717q0 -212 150 -362.5t363 -150.5q212 0 362.5 150.5t150.5 362.5t-150.5 362.5t-362.5 150.5q-213 0 -363 -150.5t-150 -362.5z" />
<glyph unicode="P" horiz-adv-x="1111" d="M100 102v1230q0 42 30 72t72 30l410 1q173 0 295.5 -122t122.5 -295t-122.5 -295.5t-295.5 -122.5h-308v-498q0 -42 -30 -72t-72 -30t-72 30t-30 72zM304 801h308q90 0 153.5 63.5t63.5 153.5q0 89 -63.5 152.5t-153.5 63.5h-308v-433z" />
<glyph unicode="Q" horiz-adv-x="1614" d="M100 717q0 297 210 507t507 210t507 -210t210 -507q0 -262 -164 -456l87 -87q29 -30 29 -72q0 -43 -29 -73q-30 -29 -72 -29q-43 0 -73 29l-93 93q-176 -122 -402 -122q-297 0 -507 210t-210 507zM304 717q0 -212 150 -362.5t363 -150.5q140 0 254 66l-42 42 q-29 30 -29 73q0 42 29 72q30 29 73 29q42 0 72 -29l51 -51q105 134 105 311q0 212 -150.5 362.5t-362.5 150.5q-213 0 -363 -150.5t-150 -362.5z" />
<glyph unicode="R" horiz-adv-x="1283" d="M100 102v1230q0 42 30 72t72 30l410 1q173 0 295.5 -122t122.5 -295t-122 -295q-17 -17 -33 -30l311 -540q14 -24 14 -49q0 -14 -4 -28q-11 -41 -48 -62q-24 -14 -49 -14q-14 0 -28 4q-41 11 -62 47l-321 555q-37 -6 -76 -6h-308v-498q0 -42 -30 -72t-72 -30t-72 30 t-30 72zM304 801h308q90 0 153.5 63.5t63.5 153.5q0 89 -63.5 152.5t-153.5 63.5h-308v-433z" />
<glyph unicode="S" d="M100 500q0 41 29 70.5t71 29.5q41 0 70.5 -29.5t29.5 -70.5q0 -124 87.5 -212t212.5 -88q124 0 212 88t88 212t-88 212t-212 88q-131 0 -223 92.5t-92 222.5q0 131 92 223t223 92q121 0 210 -80q5 -4 11 -9q29 -30 29 -71q0 -42 -29.5 -71t-70.5 -29q-42 0 -71 29l-7 7 l-1 -1q-31 25 -71 25q-48 0 -81.5 -33.5t-33.5 -81.5t33.5 -81.5t81.5 -33.5q207 0 353.5 -146.5t146.5 -353.5t-146.5 -353.5t-353.5 -146.5q-208 0 -354 146.5t-146 353.5z" />
<glyph unicode="T" d="M100 1336q0 42 30 72t72 30h796q42 0 72 -30t30 -72t-30 -72t-72 -30h-294v-1132q0 -42 -30 -72t-72 -30t-72 30t-30 72v1132h-298q-42 0 -72 30t-30 72z" />
<glyph unicode="U" d="M100 496v836q0 48 30 75t72 27t72 -27t30 -73v-836q0 -9 -1 -18q6 -110 86 -189q87 -87 210 -87h4q123 0 210 87q80 79 86 189q-1 9 -1 18v836q0 46 30 73t72 27t72 -27t30 -75v-836q-2 -204 -146 -348q-136 -136 -347 -148h-16q-211 12 -347 148q-144 144 -146 348z" />
<glyph unicode="V" horiz-adv-x="1603" d="M100 1334q0 41 29 70.5t71 29.5q41 0 71 -29q13 -14 20 -29l509 -1047l508 1047h1q7 15 20 29q29 29 71 29q41 0 70.5 -29.5t29.5 -70.5q0 -32 -17 -56l-593 -1222q-7 -14 -19 -26q-30 -30 -71 -30q-42 0 -71 30q-14 14 -21 30l-593 1222q-15 23 -15 52z" />
<glyph unicode="W" horiz-adv-x="2200" d="M100 1334q0 41 29.5 70.5t70.5 29.5t71 -29q14 -15 22 -33l417 -1030l295 590q7 21 25 39q29 29 70 29t71 -29q12 -13 19 -27l300 -600l417 1028q8 18 23 33q29 29 70 29t70.5 -29.5t29.5 -70.5q0 -22 -8 -41l-498 -1227q-7 -20 -23 -36q-30 -30 -71 -30t-70 30 q-16 15 -23 34l-306 612l-311 -621q-8 -14 -19 -25q-30 -30 -71 -30t-70 30q-17 16 -24 36l-498 1227q-8 19 -8 41z" />
<glyph unicode="X" horiz-adv-x="1399" d="M100 100q0 42 29 71l2 2l440 544l-449 554q-22 27 -22 63q0 41 29.5 70.5t70.5 29.5t71 -29q3 -4 7 -8l422 -521l418 516q5 7 11 13q29 29 71 29q41 0 70.5 -29t29.5 -71q0 -36 -22 -63l-449 -554l449 -554q22 -27 22 -63q0 -41 -29.5 -70.5t-70.5 -29.5q-42 0 -71 30 q-4 3 -7 7l-422 521l-422 -521l-7 -7q-30 -30 -71 -30q-42 0 -71 29.5t-29 70.5z" />
<glyph unicode="Y" d="M100 1334q0 41 29.5 70.5t70.5 29.5q42 0 71 -29q12 -12 19 -26l310 -453l317 464q6 8 13 15q29 29 70 29q42 0 71 -29.5t29 -70.5q0 -38 -24 -65l-376 -550v-619q0 -42 -29 -71t-71 -29q-41 0 -70.5 29t-29.5 71v618l-383 559q-17 25 -17 57z" />
<glyph unicode="Z" d="M100 100q0 30 15 54l701 1080h-566q-41 0 -70.5 29.5t-29.5 70.5q0 42 29.5 71t70.5 29h750q42 0 71 -29t29 -71q0 -38 -20 -69l-697 -1065h617q42 0 71 -29t29 -71q0 -41 -29 -70.5t-71 -29.5h-800q-41 0 -70.5 29.5t-29.5 70.5z" />
<glyph unicode="[" horiz-adv-x="597" d="M100 -148v1730q0 42 30 72t72 30h190q42 0 72 -30t30 -72t-30 -72t-72 -30h-88v-1526h88q42 0 72 -30t30 -72t-30 -72t-72 -30h-190q-42 0 -72 30t-30 72z" />
<glyph unicode="\" horiz-adv-x="998" d="M0 1394q0 14 4 28q11 40 47 62q24 14 50 14q14 0 28 -4q41 -11 62 -48l795 -1377q14 -24 14 -49q0 -14 -4 -28q-11 -41 -48 -62q-24 -14 -49 -14q-14 0 -28 4q-41 11 -62 47l-795 1377q-14 24 -14 50z" />
<glyph unicode="]" horiz-adv-x="597" d="M106 -148q0 -42 30 -72t72 -30h190q42 0 72 30t30 72v1730q0 42 -30 72t-72 30h-190q-42 0 -72 -30t-30 -72t30 -72t72 -30h88v-1526h-88q-42 0 -72 -30t-30 -72z" />
<glyph unicode="^" horiz-adv-x="1097" d="M100 803q0 31 19 57l326 473q16 27 40 44q26 18 57 18h6q31 0 57 -18q24 -17 40 -44l326 -473q19 -26 19 -57q0 -10 -2 -19q-7 -42 -42 -66q-26 -18 -56 -18q-10 0 -20 2q-42 7 -66 41l-259 370l-259 -370q-24 -34 -66 -41q-10 -2 -20 -2q-30 0 -56 18q-35 24 -42 66 q-2 9 -2 19z" />
<glyph unicode="_" horiz-adv-x="998" d="M-100 -198q0 42 30 72t72 30h990q42 0 72 -30t30 -72t-30 -72t-72 -30h-990q-42 0 -72 30t-30 72z" />
<glyph unicode="`" horiz-adv-x="682" d="M100 1289q0 25 14 49q22 37 62 48q14 3 27 3q26 0 51 -14l268 -155q37 -21 48 -61q4 -14 4 -28q0 -26 -14 -50q-21 -36 -62 -47q-14 -4 -28 -4q-26 0 -50 14l-268 155q-37 21 -48 62q-4 14 -4 28z" />
<glyph unicode="a" d="M100 499q0 207 146 353t353 146t353 -146q144 -144 146 -348v-406q0 -58 -30 -78t-72 -20t-72 20t-30 76q-128 -96 -295 -96q-207 0 -353 146t-146 353zM303 500q0 -123 86.5 -210t209.5 -87t210 87q74 74 85 174v38q0 9 1 18q-6 110 -86 189q-87 87 -210 87 t-209.5 -86.5t-86.5 -209.5z" />
<glyph unicode="b" d="M100 494v702q0 42 30 72t72 30t72 -30t30 -72v-294q128 96 295 96q207 0 353 -146t146 -353t-146 -353t-353 -146t-353 146q-144 144 -146 348zM303 478q6 -110 86 -189q87 -87 210 -87t209.5 86.5t86.5 209.5t-86.5 210t-209.5 87t-210 -87q-74 -74 -85 -174v-38 q0 -9 -1 -18z" />
<glyph unicode="c" horiz-adv-x="1097" d="M100 499q0 207 146 353t353 146t352 -145l-1 -1q0 -1 1 -1q29 -29 29 -71q0 -41 -29.5 -70.5t-70.5 -29.5q-42 0 -71 30h-1q-86 86 -209 86t-210 -86.5t-87 -209.5t87 -210t210 -87q122 0 209 86l2 2q29 29 71 29t72 -29.5t30 -71.5t-30 -72l-2 -2q-145 -145 -352 -145 t-353 146t-146 353z" />
<glyph unicode="d" d="M100 499q0 207 146 353t353 146q167 0 295 -96v294q0 42 30 72t72 30t72 -30t30 -72v-702q-2 -204 -146 -348q-146 -146 -353 -146t-353 146t-146 353zM303 498q0 -123 86.5 -209.5t209.5 -86.5t210 87q80 79 86 189q-1 9 -1 18v38q-11 100 -85 174q-87 87 -210 87 t-209.5 -87t-86.5 -210z" />
<glyph unicode="e" horiz-adv-x="1097" d="M100 499q0 207 146 353t353 146t352 -145l-1 -1q0 -1 1 -1q29 -29 29 -71q0 -41 -29 -70l-286 -284q-30 -29 -72 -29q-43 0 -73 29q-29 30 -29 73q0 42 29 72l200 200q-55 25 -121 25q-123 0 -210 -86.5t-87 -209.5t87 -210t210 -87q122 0 209 86l2 2q29 29 71 29 t72 -29.5t30 -71.5t-30 -72l-2 -2q-145 -145 -352 -145t-353 146t-146 353z" />
<glyph unicode="f" horiz-adv-x="801" d="M83 900q0 42 30 72t72 30h115v148q0 103 73 176.5t177 73.5q41 0 70.5 -29t29.5 -71q0 -41 -29.5 -70.5t-70.5 -29.5q-21 0 -35.5 -15t-14.5 -35v-148h115q42 0 72 -30t30 -72t-30 -72t-72 -30h-111v-696q0 -42 -30 -72t-72 -30t-72 30t-30 72v696h-115q-42 0 -72 30 t-30 72z" />
<glyph unicode="g" d="M100 499q0 207 146 353t353 146t353 -146t146 -352h1v-398q0 -8 -1 -16q-5 -199 -146 -340q-146 -146 -353 -146h-4q-42 0 -72 30t-30 72t30 72t72 30q7 0 14 -1q116 4 200 87q85 86 86 206q-128 -96 -296 -96q-207 0 -353 146t-146 353zM302 500q0 -123 87 -210t210 -87 t209.5 87t86.5 210t-86.5 209.5t-209.5 86.5t-210 -86.5t-87 -209.5z" />
<glyph unicode="h" d="M100 98v1094q0 42 30 72t72 30t72 -30t30 -72v-290q121 88 289 98h16q211 -12 347 -148q144 -144 146 -348v-406q0 -48 -30 -73t-72 -25t-72 25t-30 71v406q0 9 1 18q-6 110 -86 189q-87 87 -210 87h-4q-123 0 -210 -87q-75 -74 -85 -176v-437q0 -46 -30 -71t-72 -25 t-72 25t-30 73z" />
<glyph unicode="i" horiz-adv-x="401" d="M100 102v800q0 42 30 72t72 30t72 -30t30 -72v-800q0 -42 -30 -72t-72 -30t-72 30t-30 72zM100 1200q0 42 30 72t72 30t72 -30t30 -72t-30 -72t-72 -30t-72 30t-30 72z" />
<glyph unicode="j" horiz-adv-x="401" d="M-302 -298q0 42 30 72t72 30q7 0 14 -1q116 4 200 87q86 87 86 210v802q0 42 30 72t72 30t72 -30t30 -72v-800q0 -8 -1 -16q-5 -199 -146 -340q-146 -146 -353 -146h-4q-42 0 -72 30t-30 72zM100 1200q0 42 30 72t72 30t72 -30t30 -72t-30 -72t-72 -30t-72 30t-30 72z " />
<glyph unicode="k" horiz-adv-x="998" d="M100 102v1090q0 42 30 72t72 30t72 -30t30 -72v-560l433 346q27 22 63 22q42 0 71 -29.5t29 -70.5q0 -42 -29 -71q-9 -9 -19 -15l-390 -312l404 -323l-2 -2q4 -3 7 -6q29 -30 29 -71q0 -42 -29 -71t-71 -29q-35 0 -61 21l-1 -1l-434 347v-265q0 -42 -30 -72t-72 -30 t-72 30t-30 72z" />
<glyph unicode="l" horiz-adv-x="401" d="M100 102v1090q0 42 30 72t72 30t72 -30t30 -72v-1090q0 -42 -30 -72t-72 -30t-72 30t-30 72z" />
<glyph unicode="m" horiz-adv-x="2003" d="M100 118v386q2 204 146 348q136 136 347 148h16q211 -12 347 -148q25 -25 45 -51q20 26 45 51q136 136 347 148h16q211 -12 347 -148q144 -144 146 -348v-386q0 -58 -30 -88t-72 -30t-72 30t-30 86v386q0 9 1 18q-6 110 -86 189q-87 87 -210 87h-4q-123 0 -210 -87 q-80 -79 -86 -189q1 -9 1 -18v-386q0 -56 -30 -86t-72 -30h-2q-42 0 -72 30t-30 86v386q0 9 1 18q-6 110 -86 189q-87 87 -210 87h-4q-123 0 -210 -87q-80 -79 -86 -189q1 -9 1 -18v-386q0 -56 -30 -86t-72 -30t-72 30t-30 88z" />
<glyph unicode="n" d="M100 118v386q2 204 146 348q136 136 347 148h16q211 -12 347 -148q144 -144 146 -348v-386q0 -58 -30 -88t-72 -30t-72 30t-30 86v386q0 9 1 18q-6 110 -86 189q-87 87 -210 87h-4q-123 0 -210 -87q-80 -79 -86 -189q1 -9 1 -18v-386q0 -56 -30 -86t-72 -30t-72 30 t-30 88z" />
<glyph unicode="o" d="M100 499q0 207 146 353t353 146t353 -146t146 -353t-146 -353t-353 -146t-353 146t-146 353zM302 500q0 -123 87 -210t210 -87t209.5 87t86.5 210t-86.5 209.5t-209.5 86.5t-210 -86.5t-87 -209.5z" />
<glyph unicode="p" d="M100 -298v802q2 204 146 348q146 146 353 146t353 -146t146 -353t-146 -353t-353 -146q-167 0 -295 96v-394q0 -42 -30 -72t-72 -30t-72 30t-30 72zM303 520q1 -9 1 -18v-38q11 -100 85 -174q87 -87 210 -87t209.5 87t86.5 210t-86.5 209.5t-209.5 86.5t-210 -86 q-80 -80 -86 -190z" />
<glyph unicode="q" d="M100 499q0 207 146 353t353 146t353 -146t146 -352v-400q0 -123 86 -210q84 -83 200 -87q7 1 14 1q42 0 72 -30t30 -72t-30 -72t-72 -30h-4q-207 0 -353 146q-141 141 -146 340q-1 5 -1 10q-127 -96 -295 -96q-207 0 -353 146t-146 353zM302 500q0 -123 87 -210t210 -87 t210 87q77 78 85 184v26h1q0 123 -86.5 209.5t-209.5 86.5t-210 -86.5t-87 -209.5z" />
<glyph unicode="r" horiz-adv-x="801" d="M100 118v386q2 204 146 348q138 138 354 148q42 0 72 -30t30 -72t-30 -72t-72 -30h-1q-123 0 -210 -87q-80 -79 -86 -189q1 -9 1 -18v-386q0 -56 -30 -86t-72 -30t-72 30t-30 88z" />
<glyph unicode="s" horiz-adv-x="900" d="M100 350q0 42 29.5 71t70.5 29q42 0 71 -29t29 -71q0 -62 44 -106t106 -44t106 44t44 106t-44 106t-106 44q-104 0 -177 73.5t-73 176.5q0 104 73 177t177 73q42 0 71 -29t29 -71q0 -41 -29 -70.5t-71 -29.5q-21 0 -35.5 -14.5t-14.5 -35.5t14.5 -35.5t35.5 -14.5 q145 0 247.5 -102.5t102.5 -247.5t-102.5 -247.5t-247.5 -102.5t-247.5 102.5t-102.5 247.5z" />
<glyph unicode="t" horiz-adv-x="801" d="M83 900q0 42 30 72t72 30h115v190q0 42 30 72t72 30t72 -30t30 -72v-190h111q42 0 72 -30t30 -72t-30 -72t-72 -30h-111v-696q0 -42 -30 -72t-72 -30t-72 30t-30 72v696h-115q-42 0 -72 30t-30 72z" />
<glyph unicode="u" d="M100 496v386q0 58 30 88t72 30t72 -30t30 -86v-386q0 -9 -1 -18q6 -110 86 -189q87 -87 210 -87h4q123 0 210 87q80 79 86 189q-1 9 -1 18v386q0 56 30 86t72 30t72 -30t30 -88v-386q-2 -204 -146 -348q-136 -136 -347 -148h-16q-211 12 -347 148q-144 144 -146 348z" />
<glyph unicode="v" d="M100 900q0 41 29.5 70.5t70.5 29.5q42 0 71 -29q10 -10 16 -21h1l312 -625l312 625l1 -1q7 12 17 22q29 29 70 29q42 0 71 -29.5t29 -70.5q0 -33 -19 -58l-387 -777q-7 -20 -23 -35q-29 -30 -71 -30q-41 0 -70 30q-16 15 -23 34l-389 779q-18 25 -18 57z" />
<glyph unicode="w" horiz-adv-x="2003" d="M100 900q0 41 29.5 70.5t70.5 29.5q42 0 71 -29q10 -10 16 -21h1l312 -625l312 625l1 -1q7 12 17 22q29 29 70 29q42 0 71 -29q10 -10 16 -21h1l312 -625l312 625l1 -1q7 12 17 22q29 29 70 29q42 0 71 -29.5t29 -70.5q0 -33 -19 -58l-387 -777q-7 -20 -23 -35 q-29 -30 -71 -30q-41 0 -70 30q-16 15 -23 34l-307 615l-306 -614q-7 -20 -23 -35q-29 -30 -71 -30q-41 0 -70 30q-16 15 -23 34l-389 779q-18 25 -18 57z" />
<glyph unicode="x" d="M100 100q0 41 30 71l329 329l-330 329q-29 29 -29 71q0 41 29.5 70.5t70.5 29.5q42 0 71 -29l330 -329l328 328l1 1q29 29 70 29q42 0 71 -29.5t29 -70.5q0 -42 -29 -71q-4 -4 -9 -8l-320 -321l329 -329q29 -30 29 -71q0 -42 -29 -71t-71 -29q-41 0 -71 29l-329 329 l-327 -328q-28 -30 -73 -30q-41 0 -70.5 29t-29.5 71z" />
<glyph unicode="y" d="M100 900q0 42 29 71t71 29q41 0 71 -29q16 -16 23 -37l306 -611l305 611q7 20 24 37q29 29 71 29q41 0 70.5 -29t29.5 -71q0 -24 -10 -44l-592 -1189q-10 -20 -27 -37q-30 -30 -71 -30q-42 0 -71 29.5t-29 70.5q0 32 13 58l175 342l-376 752q-12 22 -12 48z" />
<glyph unicode="z" d="M100 100q0 42 29 71l630 629h-509q-42 0 -71 29.5t-29 70.5q0 42 29 71t71 29h750q41 0 70.5 -29t29.5 -71q0 -41 -29 -70l-1 -1l-629 -629h559q41 0 70.5 -29t29.5 -71q0 -41 -29.5 -70.5t-70.5 -29.5h-800q-42 0 -71 29.5t-29 70.5z" />
<glyph unicode="{" horiz-adv-x="801" d="M100 700q0 42 29 71t71 29q41 0 70.5 29.5t29.5 70.5v400q0 125 87.5 212.5t212.5 87.5q41 0 70.5 -29t29.5 -71q0 -41 -29.5 -70.5t-70.5 -29.5q-42 0 -71 -29t-29 -71v-400q0 -115 -76 -200q76 -84 76 -200v-400q0 -41 29 -70.5t71 -29.5t71 -29t29 -71 q0 -41 -29 -70.5t-71 -29.5q-125 0 -212.5 88t-87.5 212v400q0 42 -29.5 71t-70.5 29q-42 0 -71 29.5t-29 70.5z" />
<glyph unicode="|" horiz-adv-x="401" d="M92 -88v1590q0 42 30 72t72 30t72 -30t30 -72v-1590q0 -42 -30 -72t-72 -30t-72 30t-30 72z" />
<glyph unicode="}" horiz-adv-x="801" d="M100 -100q0 -41 29 -70.5t71 -29.5q125 0 212.5 88t87.5 212v400q0 42 29.5 71t70.5 29q42 0 71 29.5t29 70.5q0 42 -29 71t-71 29q-41 0 -70.5 29.5t-29.5 70.5v400q0 125 -87.5 212.5t-212.5 87.5q-41 0 -70.5 -29t-29.5 -71q0 -41 29.5 -70.5t70.5 -29.5q42 0 71 -29 t29 -71v-400q0 -115 76 -200q-76 -84 -76 -200v-400q0 -41 -29 -70.5t-71 -29.5t-71 -29t-29 -71z" />
<glyph unicode="~" horiz-adv-x="977" d="M63 562q0 104 73 177t177 73t177 -73t73 -177q0 -25 18 -43.5t45 -18.5q26 0 44 18.5t18 43.5q0 39 27.5 66.5t66.5 27.5q38 0 66 -27.5t28 -66.5q0 -104 -73.5 -177t-176.5 -73q-104 0 -177 73t-73 177q0 25 -18.5 43.5t-44.5 18.5t-44.5 -18.5t-18.5 -43.5 q0 -39 -27 -66.5t-66 -27.5t-66.5 27.5t-27.5 66.5z" />
<glyph unicode="&#xa1;" horiz-adv-x="401" d="M96 -318v840q0 42 30 72t72 30t72 -30t30 -72v-840q0 -42 -30 -72t-72 -30t-72 30t-30 72zM96 922q0 42 30 72t72 30t72 -30t30 -72t-30 -72t-72 -30t-72 30t-30 72z" />
<glyph unicode="&#xa2;" d="M100 -196q0 25 14 49l169 293q-146 146 -146 353t146 353t353 146q68 0 130 -16l143 248q21 37 62 48q14 4 28 4q25 0 49 -14q37 -22 48 -62q4 -14 4 -28q0 -26 -14 -50l-138 -239q21 -17 40 -36l-1 -1q0 -1 1 -1q29 -29 29 -71q0 -41 -29.5 -70.5t-70.5 -29.5 q-42 0 -71 30h-1l-287 -497q37 -10 78 -10q122 0 209 86l2 2q29 29 71 29t72 -29.5t30 -71.5t-30 -72l-2 -2q-145 -145 -352 -145q-98 0 -182 33l-163 -282q-21 -36 -62 -47q-14 -4 -28 -4q-26 0 -50 14q-36 21 -47 62q-4 14 -4 28zM339 500q0 -95 52 -168l267 463 q-11 1 -22 1q-123 0 -210 -86.5t-87 -209.5z" />
<glyph unicode="&#xa3;" horiz-adv-x="1028" d="M100 100q0 35 20 60l-3 3q17 20 31 39l-1 2l9 9q117 160 121 324q-1 31 -4 57h-71q-42 0 -72 30t-30 72t30 72q21 21 48 27q-61 94 -61 214q0 166 117 283t283 117q165 0 283 -117q16 -16 30 -33l-5 -4q24 -27 24 -65q0 -41 -29.5 -70.5t-70.5 -29.5q-42 0 -71 30 q-16 15 -23 35q-58 54 -138 54q-83 0 -141.5 -58.5t-58.5 -141.5q0 -72 79 -172q14 -17 25 -39h181q42 0 72 -30t30 -72t-30 -72t-72 -30h-129q3 -29 4 -61q-3 -115 -45 -228q115 -11 200 -92q33 -17 72 -17q62 0 106 43l3 -3q18 8 40 8q41 0 70.5 -29.5t29.5 -70.5 q0 -22 -8 -40l6 -6q-13 -13 -28 -25q-10 -10 -21 -17q-86 -60 -198 -60q-140 0 -241 95q-31 16 -68 16q-52 0 -92 -31q-5 -8 -11 -15q-7 -17 -21 -31q-30 -30 -71 -30q-42 0 -71 29.5t-29 70.5z" />
<glyph unicode="&#xa4;" horiz-adv-x="998" d="M100 400q0 41 30 71l25 25q-55 91 -55 204t55 204l-25 25q-30 29 -30 71q0 41 29.5 70.5t70.5 29.5t71 -28l26 -26q91 54 203 54q113 0 204 -54l26 26q30 28 70 28q42 0 71 -29.5t29 -70.5q0 -42 -29 -71l-25 -25q54 -91 54 -204t-55 -203l26 -26q29 -30 29 -71 q0 -42 -29 -71t-71 -29q-41 0 -70 29l-26 26q-91 -55 -204 -55t-203 55l-26 -26q-29 -29 -71 -29q-41 0 -70.5 29t-29.5 71zM300 700q0 -83 59 -141.5t141 -58.5q83 0 141.5 58.5t58.5 141.5t-58.5 141.5t-141.5 58.5q-82 0 -141 -58.5t-59 -141.5z" />
<glyph unicode="&#xa5;" horiz-adv-x="1374" d="M100 1334q0 41 29.5 70.5t70.5 29.5q42 0 71 -29q12 -12 19 -26l310 -453l317 464q6 8 13 15q29 29 70 29q42 0 71 -29.5t29 -70.5q0 -38 -24 -65l-286 -419h102q42 0 72 -30t30 -72t-30 -72t-72 -30h-192v-204h192q42 0 72 -30t30 -72t-30 -72t-72 -30h-192v-138 q0 -42 -29 -71t-71 -29q-41 0 -70.5 29t-29.5 71v138h-198q-42 0 -72 30t-30 72t30 72t72 30h198v204h-198q-42 0 -72 30t-30 72t30 72t72 30h108l-293 427q-17 25 -17 57z" />
<glyph unicode="&#xa6;" horiz-adv-x="401" d="M100 -298v600q0 42 30 72t72 30t72 -30t30 -72v-600q0 -42 -30 -72t-72 -30t-72 30t-30 72zM100 732v600q0 42 30 72t72 30t72 -30t30 -72v-600q0 -42 -30 -72t-72 -30t-72 30t-30 72z" />
<glyph unicode="&#xa7;" horiz-adv-x="989" d="M100 250q0 41 29 70.5t71 29.5q41 0 70.5 -29.5t29.5 -70.5q0 -82 58.5 -141t141.5 -59t141.5 59t58.5 141q0 83 -58.5 141.5t-141.5 58.5q-109 0 -185 77t-76 185q0 88 34 133q-19 12 -56 49q-117 117 -117 283q0 165 117 282.5t283 117.5t283 -117.5t117 -282.5 q0 -41 -29 -70.5t-71 -29.5q-41 0 -70.5 29.5t-29.5 70.5q0 82 -58.5 141t-141.5 59t-141.5 -59t-58.5 -141q0 -83 58.5 -141.5t141.5 -58.5q109 0 185 -77t76 -185q0 -88 -34 -133q19 -12 56 -49q117 -117 117 -283q0 -165 -117 -282.5t-283 -117.5t-283 117.5t-117 282.5z M425 700q0 -31 22 -53t53 -22t53 22t22 53q0 32 -22 53.5t-53 21.5t-53 -21.5t-22 -53.5z" />
<glyph unicode="&#xa8;" horiz-adv-x="703" d="M100 1200q0 42 29.5 71t70.5 29t70.5 -29t29.5 -71q0 -41 -29.5 -70.5t-70.5 -29.5t-70.5 29.5t-29.5 70.5zM400 1200q0 42 29.5 71t70.5 29t70.5 -29t29.5 -71q0 -41 -29.5 -70.5t-70.5 -29.5t-70.5 29.5t-29.5 70.5z" />
<glyph unicode="&#xa9;" horiz-adv-x="1821" d="M100 717q0 338 239.5 577.5t577.5 239.5t577.5 -239.5t239.5 -577.5t-239.5 -577.5t-577.5 -239.5t-577.5 239.5t-239.5 577.5zM304 717q0 -253 179 -433t434 -180q253 0 433 180t180 433t-180 433t-433 180q-255 0 -434 -180t-179 -433zM462 717q0 186 131.5 317.5 t317.5 131.5q187 0 317 -130l-1 -1q0 -1 1 -1q26 -26 26 -64q0 -37 -26.5 -63.5t-63.5 -26.5q-38 0 -64 27h-1q-77 77 -188 77q-110 0 -188.5 -77.5t-78.5 -188.5t78.5 -189t188.5 -78t188 77l2 2q26 26 64 26t65 -26.5t27 -64.5t-27 -65l-2 -2q-130 -130 -317 -130 q-186 0 -317.5 131.5t-131.5 317.5z" />
<glyph unicode="&#xaa;" horiz-adv-x="863" d="M100 602q0 42 30 72t72 30h446q42 0 72 -30t30 -72t-30 -72t-72 -30h-446q-42 0 -72 30t-30 72zM100 1134q0 125 96.5 212.5t232.5 87.5q137 0 233 -88q95 -86 97 -209v-227q-5 -29 -29 -49q-29 -26 -71 -26q-41 0 -70 26q-5 3 -8 7q-68 -33 -152 -33q-136 0 -232.5 87.5 t-96.5 211.5zM284 1135q0 -53 42.5 -90.5t102.5 -37.5q61 0 104 37q36 32 41 75v17q0 4 1 8q-3 47 -42 81q-43 38 -104 38q-60 0 -102.5 -37.5t-42.5 -90.5z" />
<glyph unicode="&#xab;" horiz-adv-x="949" d="M100 700q0 -30 16 -55l-2 -1l200 -300l2 1q6 -8 13 -15q30 -30 71 -30q42 0 71 29.5t29 70.5q0 32 -17 57l-162 244l156 236q23 27 23 63q0 42 -29 71t-71 29q-41 0 -71 -29q-7 -7 -12 -15h-1l-200 -301q-16 -24 -16 -55zM452 700q0 -30 16 -55l-2 -1l200 -300l2 1 q6 -8 13 -15q30 -30 71 -30q42 0 71 29.5t29 70.5q0 32 -17 57l-162 244l156 236q23 27 23 63q0 42 -29 71t-71 29q-41 0 -71 -29q-7 -7 -12 -15h-1l-200 -301q-16 -24 -16 -55z" />
<glyph unicode="&#xac;" horiz-adv-x="998" d="M100 896q0 42 30 72t72 30l600 6q42 0 72 -30t30 -72v-400q0 -42 -30 -72t-72 -30t-72 30t-30 72v292h-498q-42 0 -72 30t-30 72z" />
<glyph unicode="&#xad;" horiz-adv-x="801" d="M100 696q0 42 30 72t72 30h400q42 0 72 -30t30 -72t-30 -72t-72 -30h-400q-42 0 -72 30t-30 72z" />
<glyph unicode="&#xae;" horiz-adv-x="1835" d="M100 717q0 338 239.5 577.5t577.5 239.5t577.5 -239.5t239.5 -577.5t-239.5 -577.5t-577.5 -239.5t-577.5 239.5t-239.5 577.5zM304 717q0 -253 179 -433t434 -180q253 0 433 180t180 433t-180 433t-433 180q-255 0 -434 -180t-179 -433zM600 350v700q0 42 29.5 71 t70.5 29h225q114 0 194.5 -80.5t80.5 -194.5t-80 -194q-7 -7 -14 -13l130 -266q14 -23 14 -52q0 -41 -29 -70.5t-71 -29.5q-41 0 -70 30q-18 17 -25 38l-138 282h-117v-250q0 -41 -29 -70.5t-71 -29.5q-41 0 -70.5 29.5t-29.5 70.5zM800 800h125q32 0 53.5 22t21.5 53 t-21.5 53t-53.5 22h-125v-150z" />
<glyph unicode="&#xaf;" horiz-adv-x="801" d="M100 1324q0 42 30 72t72 30h400q42 0 72 -30t30 -72t-30 -72t-72 -30h-400q-42 0 -72 30t-30 72z" />
<glyph unicode="&#xb0;" horiz-adv-x="801" d="M100 1134q0 125 88 212.5t212 87.5t212 -87.5t88 -212.5q0 -124 -88 -212t-212 -88t-212 88t-88 212zM275 1134q0 -51 36.5 -88t88.5 -37t88.5 37t36.5 88q0 52 -36.5 88.5t-88.5 36.5t-88.5 -36.5t-36.5 -88.5z" />
<glyph unicode="&#xb1;" horiz-adv-x="998" d="M191 92q0 42 29.5 72t72.5 30h400q42 0 72 -30t30 -72t-30 -72t-72 -30h-400q-43 0 -72.5 30t-29.5 72zM197 696q0 42 29.5 72t72.5 30h98v98q0 42 29.5 72t72.5 30q42 0 72 -30t30 -72v-98h98q42 0 72 -30t30 -72t-30 -72t-72 -30h-98v-98q0 -42 -30 -72t-72 -30 q-43 0 -72.5 30t-29.5 72v98h-98q-43 0 -72.5 30t-29.5 72z" />
<glyph unicode="&#xb2;" horiz-adv-x="766" d="M100 700q0 114 76 190t148.5 113.5t99 64t26.5 57.5t-22 53t-53 22t-53 -22t-22 -53q0 -42 -29 -71t-71 -29q-41 0 -70.5 29t-29.5 71q0 114 80.5 194.5t194.5 80.5t194.5 -80.5t80.5 -194.5t-76 -190t-194 -135h170q41 0 70.5 -29.5t29.5 -70.5t-29.5 -70.5t-70.5 -29.5 h-350q-42 0 -71 29.5t-29 70.5z" />
<glyph unicode="&#xb3;" horiz-adv-x="759" d="M100 764q0 41 29 70.5t71 29.5q41 0 71 -29q4 -5 6 -7q-1 1 -2 1q29 -29 71 -29q41 0 70.5 29.5t29.5 70.5q0 42 -29.5 71t-70.5 29q-42 0 -71 29.5t-29 70.5q0 42 25 67q-42 0 -71 29.5t-29 70.5t29 70l4 4l1 1q58 58 141 58t141.5 -58.5t58.5 -141.5q0 -62 -3 -67 q-3 2 -4 2t-1 -1q0 -2 20 -22q88 -88 88 -212t-88 -212t-212 -88t-206 82l-8 8q-4 4 -5 6q-27 26 -27 68z" />
<glyph unicode="&#xb4;" horiz-adv-x="689" d="M100 1131q0 14 4 28q11 40 48 61l268 155q25 14 51 14q13 0 27 -3q40 -11 62 -48q14 -24 14 -49q0 -14 -4 -28q-11 -41 -48 -62l-268 -155q-24 -14 -50 -14q-14 0 -28 4q-41 11 -62 47q-14 24 -14 50z" />
<glyph unicode="&#xb5;" d="M100 -192v1094q0 48 30 73t72 25t72 -25t30 -71v-437q10 -102 85 -176q87 -87 210 -87h4q123 0 210 87q80 79 86 189q-1 9 -1 18v406q0 46 30 71q8 7 17 12q25 17 57 17q42 0 72 -30t30 -72v-800q0 -42 -30 -72t-72 -30t-72 30q-29 29 -30 70q-121 -90 -291 -100h-16 q-168 10 -289 98v-290q0 -42 -30 -72t-72 -30t-72 30t-30 72z" />
<glyph unicode="&#xb6;" horiz-adv-x="1209" d="M100 1018q0 173 122.5 295t295.5 122l210 -1q11 0 21 -2h258q10 2 21 2q42 0 72 -30t30 -72v-1230q0 -42 -30 -72t-72 -30t-72 30t-30 72v1132h-96v-1132q0 -42 -30 -72t-72 -30t-72 30t-30 72v498h-108q-173 0 -295.5 122.5t-122.5 295.5zM301 1018q0 -90 63.5 -153.5 t153.5 -63.5h108v433h-108q-90 0 -153.5 -63.5t-63.5 -152.5z" />
<glyph unicode="&#xb7;" horiz-adv-x="508" d="M98 622q0 35 25.5 60.5t61.5 25.5q35 0 60.5 -25.5t25.5 -60.5q0 -36 -25.5 -61.5t-60.5 -25.5q-36 0 -61.5 25.5t-25.5 61.5z" />
<glyph unicode="&#xb8;" horiz-adv-x="443" d="M100 -99q0 6 1 13v70q0 32 22 54.5t54 22.5t54.5 -22.5t22.5 -54.5v-25q29 -14 54 -38q54 -56 54 -133q0 -78 -54.5 -132.5t-132.5 -54.5q-32 0 -53.5 21.5t-21.5 53.5q0 30 21.5 52.5t53.5 22.5q16 0 26.5 10.5t10.5 26.5t-10 27q-8 8 -19 10h-6q-16 0 -30 6 q-14 5 -25 17q-22 21 -22 53z" />
<glyph unicode="&#xb9;" horiz-adv-x="513" d="M100 1204q0 42 30 72l102 99q30 25 69 25q42 0 71.5 -29.5t29.5 -71.5v-595q0 -42 -29.5 -71.5t-71.5 -29.5t-71.5 29.5t-29.5 71.5v399q-41 0 -70.5 29.5t-29.5 71.5z" />
<glyph unicode="&#xba;" horiz-adv-x="863" d="M100 602q0 42 30 72t72 30h447q41 0 71 -30t30 -72t-30 -72t-71 -30h-447q-42 0 -72 30t-30 72zM100 1133q0 125 96.5 212.5t232.5 87.5q137 0 233.5 -87.5t96.5 -212.5q0 -124 -96.5 -211.5t-233.5 -87.5q-136 0 -232.5 87.5t-96.5 211.5zM283 1134q0 -53 43 -90.5 t103 -37.5q61 0 103.5 37.5t42.5 90.5t-42.5 90.5t-103.5 37.5q-60 0 -103 -37.5t-43 -90.5z" />
<glyph unicode="&#xbb;" horiz-adv-x="949" d="M100 400q0 32 17 57l162 244l-156 236q-23 27 -23 63q0 42 29 71t71 29q41 0 71 -29q7 -7 12 -15h1l200 -301q16 -24 16 -55q0 -30 -16 -55l2 -1l-200 -300l-2 1q-6 -8 -13 -15q-30 -30 -71 -30q-42 0 -71 29.5t-29 70.5zM452 400q0 32 17 57l162 244l-156 236 q-23 27 -23 63q0 42 29 71t71 29q41 0 71 -29q7 -7 12 -15h1l200 -301q16 -24 16 -55q0 -30 -16 -55l2 -1l-200 -300l-2 1q-6 -8 -13 -15q-30 -30 -71 -30q-42 0 -71 29.5t-29 70.5z" />
<glyph unicode="&#xbc;" horiz-adv-x="1603" d="M100 145q0 42 30 72l1124 1124q30 30 73 30q42 0 71 -30q30 -29 30 -71q0 -43 -30 -73l-1124 -1124q-30 -30 -72 -30q-43 0 -72 30q-30 29 -30 72zM100 1304q0 42 30 72l102 99q30 25 69 25q42 0 71.5 -29.5t29.5 -71.5v-595q0 -42 -29.5 -71.5t-71.5 -29.5t-71.5 29.5 t-29.5 71.5v399q-41 0 -70.5 29.5t-29.5 71.5zM900 200q0 34 20 60l300 401l10 10q29 29 70 29q42 0 71 -29.5t29 -70.5v-300q42 0 71 -29.5t29 -70.5q0 -42 -29 -71t-71 -29v-100q0 -42 -29 -71t-71 -29q-41 0 -70.5 29t-29.5 71v100h-200q-41 0 -70.5 29t-29.5 71z" />
<glyph unicode="&#xbd;" horiz-adv-x="1673" d="M100 145q0 42 30 72l1124 1124q30 30 73 30q42 0 71 -30q30 -29 30 -71q0 -43 -30 -73l-1124 -1124q-30 -30 -72 -30q-43 0 -72 30q-30 29 -30 72zM100 1304q0 42 30 72l102 99q30 25 69 25q42 0 71.5 -29.5t29.5 -71.5v-595q0 -42 -29.5 -71.5t-71.5 -29.5t-71.5 29.5 t-29.5 71.5v399q-41 0 -70.5 29.5t-29.5 71.5zM1000 0q0 114 76 190t148.5 113.5t99 64t26.5 57.5t-22 53t-53 22t-53 -22t-22 -53q0 -42 -29 -71t-71 -29q-41 0 -70.5 29t-29.5 71q0 114 80.5 194.5t194.5 80.5t194.5 -80.5t80.5 -194.5t-76 -190t-194 -135h170 q41 0 70.5 -29.5t29.5 -70.5t-29.5 -70.5t-70.5 -29.5h-350q-42 0 -71 29.5t-29 70.5z" />
<glyph unicode="&#xbe;" horiz-adv-x="1701" d="M100 864q0 41 29 70.5t71 29.5q41 0 71 -29q4 -5 6 -7q-1 1 -2 1q29 -29 71 -29q41 0 70.5 29.5t29.5 70.5q0 42 -29.5 71t-70.5 29q-42 0 -71 29.5t-29 70.5q0 42 25 67q-42 0 -71 29.5t-29 70.5t29 70l4 4l1 1q58 58 141 58t141.5 -58.5t58.5 -141.5q0 -62 -3 -67 q-3 2 -4 2t-1 -1q0 -2 20 -22q88 -88 88 -212t-88 -212t-212 -88t-206 82l-8 8q-4 4 -5 6q-27 26 -27 68zM200 145q0 42 30 72l1124 1124q30 30 73 30q42 0 71 -30q30 -29 30 -71q0 -43 -30 -73l-1124 -1124q-30 -30 -72 -30q-43 0 -72 30q-30 29 -30 72zM1000 200 q0 34 20 60l300 401l10 10q29 29 70 29q42 0 71 -29.5t29 -70.5v-300q42 0 71 -29.5t29 -70.5q0 -42 -29 -71t-71 -29v-100q0 -42 -29 -71t-71 -29q-41 0 -70.5 29t-29.5 71v100h-200q-41 0 -70.5 29t-29.5 71z" />
<glyph unicode="&#xbf;" horiz-adv-x="1026" d="M100 7q0 173 122 295q85 84 194 110v110q0 42 30 72t72 30q43 0 72.5 -30t29.5 -72v-200q0 -42 -29.5 -72t-72.5 -30q-13 0 -24 3q-75 -8 -130 -63q-64 -63 -64 -153t64 -154t154 -64t153.5 64t63.5 154v1q0 41 29.5 70.5t70.5 29.5t70.5 -29.5t29.5 -70.5v-1 q0 -173 -122 -295.5t-295 -122.5t-295.5 122.5t-122.5 295.5zM416 922q0 42 30 72t72 30t72 -30t30 -72t-30 -72t-72 -30t-72 30t-30 72z" />
<glyph unicode="&#xc0;" horiz-adv-x="1603" d="M100 100q0 29 15 52l593 1222q7 16 21 30q29 30 71 30q41 0 71 -30q12 -12 19 -26l593 -1222q17 -24 17 -56q0 -41 -29.5 -70.5t-70.5 -29.5q-42 0 -71 29q-13 14 -20 29h-1l-166 342h-685l-166 -342q-7 -15 -20 -29q-30 -29 -71 -29q-42 0 -71 29.5t-29 70.5zM554 600 h491l-245 505zM584 1699q0 25 14 49q22 37 62 48q14 3 27 3q26 0 51 -14l268 -155q37 -21 48 -61q4 -14 4 -28q0 -26 -14 -50q-21 -36 -62 -47q-14 -4 -28 -4q-26 0 -50 14l-268 155q-37 21 -48 62q-4 14 -4 28z" />
<glyph unicode="&#xc1;" horiz-adv-x="1603" d="M100 100q0 29 15 52l593 1222q7 16 21 30q29 30 71 30q41 0 71 -30q12 -12 19 -26l593 -1222q17 -24 17 -56q0 -41 -29.5 -70.5t-70.5 -29.5q-42 0 -71 29q-13 14 -20 29h-1l-166 342h-685l-166 -342q-7 -15 -20 -29q-30 -29 -71 -29q-42 0 -71 29.5t-29 70.5zM552 1541 q0 14 4 28q11 40 48 61l268 155q25 14 51 14q13 0 27 -3q40 -11 62 -48q14 -24 14 -49q0 -14 -4 -28q-11 -41 -48 -62l-268 -155q-24 -14 -50 -14q-14 0 -28 4q-41 11 -62 47q-14 24 -14 50zM554 600h491l-245 505z" />
<glyph unicode="&#xc2;" horiz-adv-x="1603" d="M100 100q0 29 15 52l593 1222q7 16 21 30q29 30 71 30q41 0 71 -30q12 -12 19 -26l593 -1222q17 -24 17 -56q0 -41 -29.5 -70.5t-70.5 -29.5q-42 0 -71 29q-13 14 -20 29h-1l-166 342h-685l-166 -342q-7 -15 -20 -29q-30 -29 -71 -29q-42 0 -71 29.5t-29 70.5zM549 1560 l1 1q0 42 30 72l148 148q30 30 72 31q19 0 35 -6q22 -8 39 -25l148 -148q30 -30 30 -72q0 -43 -30 -72q-30 -31 -71 -31l-1 1q-42 0 -72 30l-77 77l-77 -77q-30 -30 -72 -30q-43 0 -72 30q-31 30 -31 71zM554 600h491l-245 505z" />
<glyph unicode="&#xc3;" horiz-adv-x="1603" d="M100 100q0 29 15 52l593 1222q7 16 21 30q29 30 71 30q41 0 71 -30q12 -12 19 -26l593 -1222q17 -24 17 -56q0 -41 -29.5 -70.5t-70.5 -29.5q-42 0 -71 29q-13 14 -20 29h-1l-166 342h-685l-166 -342q-7 -15 -20 -29q-30 -29 -71 -29q-42 0 -71 29.5t-29 70.5zM475 1610 q0 83 58.5 141.5t141.5 58.5t141.5 -58.5t58.5 -141.5q0 -20 14.5 -35t35.5 -15t35.5 15t14.5 35q0 31 22 53t53 22t53 -22t22 -53q0 -83 -58.5 -141.5t-141.5 -58.5t-141.5 58.5t-58.5 141.5q0 20 -14.5 35t-35.5 15t-35.5 -15t-14.5 -35q0 -31 -22 -53t-53 -22t-53 22 t-22 53zM554 600h491l-245 505z" />
<glyph unicode="&#xc4;" horiz-adv-x="1603" d="M100 100q0 29 15 52l593 1222q7 16 21 30q29 30 71 30q41 0 71 -30q12 -12 19 -26l593 -1222q17 -24 17 -56q0 -41 -29.5 -70.5t-70.5 -29.5q-42 0 -71 29q-13 14 -20 29h-1l-166 342h-685l-166 -342q-7 -15 -20 -29q-30 -29 -71 -29q-42 0 -71 29.5t-29 70.5zM550 1610 q0 42 29.5 71t70.5 29t70.5 -29t29.5 -71q0 -41 -29.5 -70.5t-70.5 -29.5t-70.5 29.5t-29.5 70.5zM554 600h491l-245 505zM850 1610q0 42 29.5 71t70.5 29t70.5 -29t29.5 -71q0 -41 -29.5 -70.5t-70.5 -29.5t-70.5 29.5t-29.5 70.5z" />
<glyph unicode="&#xc5;" horiz-adv-x="1603" d="M100 100q0 29 15 52l593 1222q7 16 21 30q29 30 71 30q41 0 71 -30q12 -12 19 -26l593 -1222q17 -24 17 -56q0 -41 -29.5 -70.5t-70.5 -29.5q-42 0 -71 29q-13 14 -20 29h-1l-166 342h-685l-166 -342q-7 -15 -20 -29q-30 -29 -71 -29q-42 0 -71 29.5t-29 70.5zM554 600 h491l-245 505zM602 1633q0 82 58 140t140 58t140 -58t58 -140t-58 -140t-140 -58t-140 58t-58 140zM717 1633q0 -34 24 -58.5t58 -24.5q35 0 59 24.5t24 58.5t-24 58t-59 24q-34 0 -58 -24t-24 -58z" />
<glyph unicode="&#xc6;" horiz-adv-x="2003" d="M100 100q0 31 16 55l800 1234l1 -1q6 9 13 16q30 30 72 30h790q42 0 72 -30t30 -72t-30 -72t-72 -30h-688v-226h298q42 0 72 -30t30 -72t-30 -72t-72 -30h-298v-596h688q42 0 72 -30t30 -72t-30 -72t-72 -30h-790q-42 0 -72 30t-30 72v298h-387l-224 -346q-7 -13 -18 -25 q-30 -29 -71 -29q-42 0 -71 29t-29 71zM643 600h257v396z" />
<glyph unicode="&#xc7;" horiz-adv-x="1399" d="M100 717q0 297 210 507t507 210q261 0 455 -162l-1 -1l2 -2q30 -30 30 -72t-30 -72t-72 -30t-72 30l-2 2l-1 -1q-133 104 -309 104q-213 0 -363 -150.5t-150 -362.5t150 -362.5t363 -150.5q176 0 309 104l1 -1l2 2q30 30 72 30t72 -30t30 -72t-30 -72l-2 -2l1 -1 q-181 -151 -420 -161q2 -8 2 -17v-25q29 -14 54 -38q54 -56 54 -133q0 -78 -54.5 -132.5t-132.5 -54.5q-32 0 -53.5 21.5t-21.5 53.5q0 30 21.5 52.5t53.5 22.5q16 0 26.5 10.5t10.5 26.5t-10 27q-8 8 -19 10h-6q-16 0 -30 6q-14 5 -25 17q-22 21 -22 53q0 6 1 13v70 q0 13 3 24q-225 33 -394 202q-210 210 -210 507z" />
<glyph unicode="&#xc8;" horiz-adv-x="1174" d="M100 102v1230q0 42 30 72t72 30h790q42 0 72 -30t30 -72t-30 -72t-72 -30h-688v-226h298q42 0 72 -30t30 -72t-30 -72t-72 -30h-298v-596h688q42 0 72 -30t30 -72t-30 -72t-72 -30h-790q-42 0 -72 30t-30 72zM281 1699q0 25 14 49q22 37 62 48q14 3 27 3q26 0 51 -14 l268 -155q37 -21 48 -61q4 -14 4 -28q0 -26 -14 -50q-21 -36 -62 -47q-14 -4 -28 -4q-26 0 -50 14l-268 155q-37 21 -48 62q-4 14 -4 28z" />
<glyph unicode="&#xc9;" horiz-adv-x="1174" d="M100 102v1230q0 42 30 72t72 30h790q42 0 72 -30t30 -72t-30 -72t-72 -30h-688v-226h298q42 0 72 -30t30 -72t-30 -72t-72 -30h-298v-596h688q42 0 72 -30t30 -72t-30 -72t-72 -30h-790q-42 0 -72 30t-30 72zM439 1541q0 14 4 28q11 40 48 61l268 155q25 14 51 14 q13 0 27 -3q40 -11 62 -48q14 -24 14 -49q0 -14 -4 -28q-11 -41 -48 -62l-268 -155q-24 -14 -50 -14q-14 0 -28 4q-41 11 -62 47q-14 24 -14 50z" />
<glyph unicode="&#xca;" horiz-adv-x="1174" d="M100 102v1230q0 42 30 72t72 30h790q42 0 72 -30t30 -72t-30 -72t-72 -30h-688v-226h298q42 0 72 -30t30 -72t-30 -72t-72 -30h-298v-596h688q42 0 72 -30t30 -72t-30 -72t-72 -30h-790q-42 0 -72 30t-30 72zM346 1560l1 1q0 42 30 72l148 148q30 30 72 31q19 0 35 -6 q22 -8 39 -25l148 -148q30 -30 30 -72q0 -43 -30 -72q-30 -31 -71 -31l-1 1q-42 0 -72 30l-77 77l-77 -77q-30 -30 -72 -30q-43 0 -72 30q-31 30 -31 71z" />
<glyph unicode="&#xcb;" horiz-adv-x="1174" d="M100 102v1230q0 42 30 72t72 30h790q42 0 72 -30t30 -72t-30 -72t-72 -30h-688v-226h298q42 0 72 -30t30 -72t-30 -72t-72 -30h-298v-596h688q42 0 72 -30t30 -72t-30 -72t-72 -30h-790q-42 0 -72 30t-30 72zM347 1610q0 42 29.5 71t70.5 29t70.5 -29t29.5 -71 q0 -41 -29.5 -70.5t-70.5 -29.5t-70.5 29.5t-29.5 70.5zM647 1610q0 42 29.5 71t70.5 29t70.5 -29t29.5 -71q0 -41 -29.5 -70.5t-70.5 -29.5t-70.5 29.5t-29.5 70.5z" />
<glyph unicode="&#xcc;" horiz-adv-x="401" d="M-114 1699q0 25 14 49q22 37 62 48q14 3 27 3q26 0 51 -14l268 -155q37 -21 48 -61q4 -14 4 -28q0 -26 -14 -50q-21 -36 -62 -47q-14 -4 -28 -4q-26 0 -50 14l-268 155q-37 21 -48 62q-4 14 -4 28zM100 102v1230q0 42 30 72t72 30t72 -30t30 -72v-1230q0 -42 -30 -72 t-72 -30t-72 30t-30 72z" />
<glyph unicode="&#xcd;" horiz-adv-x="401" d="M44 1541q0 14 4 28q11 40 48 61l268 155q25 14 51 14q13 0 27 -3q40 -11 62 -48q14 -24 14 -49q0 -14 -4 -28q-11 -41 -48 -62l-268 -155q-24 -14 -50 -14q-14 0 -28 4q-41 11 -62 47q-14 24 -14 50zM100 102v1230q0 42 30 72t72 30t72 -30t30 -72v-1230q0 -42 -30 -72 t-72 -30t-72 30t-30 72z" />
<glyph unicode="&#xce;" horiz-adv-x="401" d="M-49 1560l1 1q0 42 30 72l148 148q30 30 72 31q19 0 35 -6q22 -8 39 -25l148 -148q30 -30 30 -72q0 -43 -30 -72q-30 -31 -71 -31l-1 1q-42 0 -72 30l-77 77l-77 -77q-30 -30 -72 -30q-43 0 -72 30q-31 30 -31 71zM101 102v1230q0 42 30 72t72 30t72 -30t30 -72v-1230 q0 -42 -30 -72t-72 -30t-72 30t-30 72z" />
<glyph unicode="&#xcf;" horiz-adv-x="401" d="M-48 1610q0 42 29.5 71t70.5 29t70.5 -29t29.5 -71q0 -41 -29.5 -70.5t-70.5 -29.5t-70.5 29.5t-29.5 70.5zM100 102v1230q0 42 30 72t72 30t72 -30t30 -72v-1230q0 -42 -30 -72t-72 -30t-72 30t-30 72zM252 1610q0 42 29.5 71t70.5 29t70.5 -29t29.5 -71 q0 -41 -29.5 -70.5t-70.5 -29.5t-70.5 29.5t-29.5 70.5z" />
<glyph unicode="&#xd0;" horiz-adv-x="1399" d="M100 702q0 42 30 72t72 30h98v528q0 42 30 72t72 30h395q297 0 507 -210t210 -507t-210 -507t-507 -210h-395q-42 0 -72 30t-30 72v498h-98q-42 0 -72 30t-30 72zM504 204h293q212 0 362.5 150.5t150.5 362.5t-150.5 362.5t-362.5 150.5h-293v-426h288q42 0 72 -30 t30 -72t-30 -72t-72 -30h-288v-396z" />
<glyph unicode="&#xd1;" horiz-adv-x="1399" d="M100 102v1230q0 42 30 72t72 30t72 -30q12 -12 19 -26l807 -996v950q0 42 30 72t72 30t72 -30t30 -72v-1230q0 -42 -30 -72t-72 -30t-72 30q-4 4 -8 7l-818 1009v-944q0 -42 -30 -72t-72 -30t-72 30t-30 72zM377 1610q0 83 58.5 141.5t141.5 58.5t141.5 -58.5 t58.5 -141.5q0 -20 14.5 -35t35.5 -15t35.5 15t14.5 35q0 31 22 53t53 22t53 -22t22 -53q0 -83 -58.5 -141.5t-141.5 -58.5t-141.5 58.5t-58.5 141.5q0 20 -14.5 35t-35.5 15t-35.5 -15t-14.5 -35q0 -31 -22 -53t-53 -22t-53 22t-22 53z" />
<glyph unicode="&#xd2;" horiz-adv-x="1652" d="M100 717q0 297 210 507t507 210t507 -210t210 -507t-210 -507t-507 -210t-507 210t-210 507zM304 717q0 -212 150 -362.5t363 -150.5q212 0 362.5 150.5t150.5 362.5t-150.5 362.5t-362.5 150.5q-213 0 -363 -150.5t-150 -362.5zM501 1699q0 25 14 49q22 37 62 48 q14 3 27 3q26 0 51 -14l268 -155q37 -21 48 -61q4 -14 4 -28q0 -26 -14 -50q-21 -36 -62 -47q-14 -4 -28 -4q-26 0 -50 14l-268 155q-37 21 -48 62q-4 14 -4 28z" />
<glyph unicode="&#xd3;" horiz-adv-x="1652" d="M100 717q0 297 210 507t507 210t507 -210t210 -507t-210 -507t-507 -210t-507 210t-210 507zM304 717q0 -212 150 -362.5t363 -150.5q212 0 362.5 150.5t150.5 362.5t-150.5 362.5t-362.5 150.5q-213 0 -363 -150.5t-150 -362.5zM659 1541q0 14 4 28q11 40 48 61l268 155 q25 14 51 14q13 0 27 -3q40 -11 62 -48q14 -24 14 -49q0 -14 -4 -28q-11 -41 -48 -62l-268 -155q-24 -14 -50 -14q-14 0 -28 4q-41 11 -62 47q-14 24 -14 50z" />
<glyph unicode="&#xd4;" horiz-adv-x="1652" d="M100 717q0 297 210 507t507 210t507 -210t210 -507t-210 -507t-507 -210t-507 210t-210 507zM304 717q0 -212 150 -362.5t363 -150.5q212 0 362.5 150.5t150.5 362.5t-150.5 362.5t-362.5 150.5q-213 0 -363 -150.5t-150 -362.5zM566 1560l1 1q0 42 30 72l148 148 q30 30 72 31q19 0 35 -6q22 -8 39 -25l148 -148q30 -30 30 -72q0 -43 -30 -72q-30 -31 -71 -31l-1 1q-42 0 -72 30l-77 77l-77 -77q-30 -30 -72 -30q-43 0 -72 30q-31 30 -31 71z" />
<glyph unicode="&#xd5;" horiz-adv-x="1652" d="M100 717q0 297 210 507t507 210t507 -210t210 -507t-210 -507t-507 -210t-507 210t-210 507zM304 717q0 -212 150 -362.5t363 -150.5q212 0 362.5 150.5t150.5 362.5t-150.5 362.5t-362.5 150.5q-213 0 -363 -150.5t-150 -362.5zM499 1632q0 83 58.5 141.5t141.5 58.5 t141.5 -58.5t58.5 -141.5q0 -20 14.5 -35t35.5 -15t35.5 15t14.5 35q0 31 22 53t53 22t53 -22t22 -53q0 -83 -58.5 -141.5t-141.5 -58.5t-141.5 58.5t-58.5 141.5q0 20 -14.5 35t-35.5 15t-35.5 -15t-14.5 -35q0 -31 -22 -53t-53 -22t-53 22t-22 53z" />
<glyph unicode="&#xd6;" horiz-adv-x="1652" d="M100 717q0 297 210 507t507 210t507 -210t210 -507t-210 -507t-507 -210t-507 210t-210 507zM304 717q0 -212 150 -362.5t363 -150.5q212 0 362.5 150.5t150.5 362.5t-150.5 362.5t-362.5 150.5q-213 0 -363 -150.5t-150 -362.5zM567 1610q0 42 29.5 71t70.5 29t70.5 -29 t29.5 -71q0 -41 -29.5 -70.5t-70.5 -29.5t-70.5 29.5t-29.5 70.5zM867 1610q0 42 29.5 71t70.5 29t70.5 -29t29.5 -71q0 -41 -29.5 -70.5t-70.5 -29.5t-70.5 29.5t-29.5 70.5z" />
<glyph unicode="&#xd7;" horiz-adv-x="682" d="M92 556q0 42 30 72l70 69l-70 69q-29 30 -29 72l-1 1q0 42 30 72q30 29 73 29q42 0 72 -29l69 -70l69 70q30 29 73 29q42 0 71 -29q30 -30 30 -72q0 -43 -30 -73l-69 -69l69 -69q30 -30 30 -72q0 -43 -30 -73t-71 -30l-1 1q-42 0 -72 29l-69 70l-69 -70q-30 -30 -72 -30 l-1 1q-42 0 -72 29q-29 30 -29 72z" />
<glyph unicode="&#xd8;" horiz-adv-x="1652" d="M100 717q0 297 210 507t507 210q147 0 272 -51l37 63q21 37 62 48q14 4 28 4q25 0 49 -14q37 -22 48 -62q4 -14 4 -28q0 -26 -14 -50l-38 -66q30 -25 59 -54q210 -210 210 -507t-210 -507t-507 -210q-141 0 -263 47l-46 -80q-21 -36 -62 -47q-14 -4 -28 -4q-26 0 -50 14 q-36 21 -47 62q-4 14 -4 28q0 25 14 49l47 81q-35 27 -68 60q-210 210 -210 507zM304 717q0 -212 150 -362q13 -14 27 -26l505 874q-79 27 -169 27q-213 0 -363 -150.5t-150 -362.5zM658 228q75 -24 159 -24q212 0 362.5 150.5t150.5 362.5t-150 363q-10 9 -19 18z" />
<glyph unicode="&#xd9;" d="M100 496v836q0 48 30 75t72 27t72 -27t30 -73v-836q0 -9 -1 -18q6 -110 86 -189q87 -87 210 -87h4q123 0 210 87q80 79 86 189q-1 9 -1 18v836q0 46 30 73t72 27t72 -27t30 -75v-836q-2 -204 -146 -348q-136 -136 -347 -148h-16q-211 12 -347 148q-144 144 -146 348z M285 1699q0 25 14 49q22 37 62 48q14 3 27 3q26 0 51 -14l268 -155q37 -21 48 -61q4 -14 4 -28q0 -26 -14 -50q-21 -36 -62 -47q-14 -4 -28 -4q-26 0 -50 14l-268 155q-37 21 -48 62q-4 14 -4 28z" />
<glyph unicode="&#xda;" d="M100 496v836q0 48 30 75t72 27t72 -27t30 -73v-836q0 -9 -1 -18q6 -110 86 -189q87 -87 210 -87h4q123 0 210 87q80 79 86 189q-1 9 -1 18v836q0 46 30 73t72 27t72 -27t30 -75v-836q-2 -204 -146 -348q-136 -136 -347 -148h-16q-211 12 -347 148q-144 144 -146 348z M443 1541q0 14 4 28q11 40 48 61l268 155q25 14 51 14q13 0 27 -3q40 -11 62 -48q14 -24 14 -49q0 -14 -4 -28q-11 -41 -48 -62l-268 -155q-24 -14 -50 -14q-14 0 -28 4q-41 11 -62 47q-14 24 -14 50z" />
<glyph unicode="&#xdb;" d="M100 496v836q0 48 30 75t72 27t72 -27t30 -73v-836q0 -9 -1 -18q6 -110 86 -189q87 -87 210 -87h4q123 0 210 87q80 79 86 189q-1 9 -1 18v836q0 46 30 73t72 27t72 -27t30 -75v-836q-2 -204 -146 -348q-136 -136 -347 -148h-16q-211 12 -347 148q-144 144 -146 348z M350 1560l1 1q0 42 30 72l148 148q30 30 72 31q19 0 35 -6q22 -8 39 -25l148 -148q30 -30 30 -72q0 -43 -30 -72q-30 -31 -71 -31l-1 1q-42 0 -72 30l-77 77l-77 -77q-30 -30 -72 -30q-43 0 -72 30q-31 30 -31 71z" />
<glyph unicode="&#xdc;" d="M100 496v836q0 48 30 75t72 27t72 -27t30 -73v-836q0 -9 -1 -18q6 -110 86 -189q87 -87 210 -87h4q123 0 210 87q80 79 86 189q-1 9 -1 18v836q0 46 30 73t72 27t72 -27t30 -75v-836q-2 -204 -146 -348q-136 -136 -347 -148h-16q-211 12 -347 148q-144 144 -146 348z M351 1610q0 42 29.5 71t70.5 29t70.5 -29t29.5 -71q0 -41 -29.5 -70.5t-70.5 -29.5t-70.5 29.5t-29.5 70.5zM651 1610q0 42 29.5 71t70.5 29t70.5 -29t29.5 -71q0 -41 -29.5 -70.5t-70.5 -29.5t-70.5 29.5t-29.5 70.5z" />
<glyph unicode="&#xdd;" d="M100 1334q0 41 29.5 70.5t70.5 29.5q42 0 71 -29q12 -12 19 -26l310 -453l317 464q6 8 13 15q29 29 70 29q42 0 71 -29.5t29 -70.5q0 -38 -24 -65l-376 -550v-619q0 -42 -29 -71t-71 -29q-41 0 -70.5 29t-29.5 71v618l-383 559q-17 25 -17 57zM442 1541q0 14 4 28 q11 40 48 61l268 155q25 14 51 14q13 0 27 -3q40 -11 62 -48q14 -24 14 -49q0 -14 -4 -28q-11 -41 -48 -62l-268 -155q-24 -14 -50 -14q-14 0 -28 4q-41 11 -62 47q-14 24 -14 50z" />
<glyph unicode="&#xde;" horiz-adv-x="1111" d="M100 -98v1600q0 42 30 72t72 30t72 -30t30 -72v-268l308 1q173 0 295.5 -122t122.5 -295t-122.5 -295.5t-295.5 -122.5h-308v-498q0 -42 -30 -72t-72 -30t-72 30t-30 72zM304 601h308q90 0 153.5 63.5t63.5 153.5q0 89 -63.5 152.5t-153.5 63.5h-308v-433z" />
<glyph unicode="&#xdf;" horiz-adv-x="1075" d="M100 102v982q0 145 102.5 247.5t247.5 102.5h15q124 0 212 -87.5t88 -212.5q0 -124 -107.5 -241t-107.5 -136q0 -21 14.5 -35.5t35.5 -14.5q145 0 247.5 -102.5t102.5 -247.5t-102.5 -247.5t-247.5 -102.5q-42 0 -71 29t-29 71q0 41 29 70.5t71 29.5q62 0 106 44t44 106 t-44 106t-106 44q-104 0 -177 73.5t-73 176.5q0 101 68 172l117 134l1 1q29 29 29 70q0 42 -29.5 71t-70.5 29h-15q-62 0 -106 -44t-44 -106l4 -982q0 -42 -30 -72t-72 -30t-72 30t-30 72z" />
<glyph unicode="&#xe0;" d="M100 499q0 207 146 353t353 146t353 -146q144 -144 146 -348v-406q0 -58 -30 -78t-72 -20t-72 20t-30 76q-128 -96 -295 -96q-207 0 -353 146t-146 353zM283 1289q0 25 14 49q22 37 62 48q14 3 27 3q26 0 51 -14l268 -155q37 -21 48 -61q4 -14 4 -28q0 -26 -14 -50 q-21 -36 -62 -47q-14 -4 -28 -4q-26 0 -50 14l-268 155q-37 21 -48 62q-4 14 -4 28zM303 500q0 -123 86.5 -210t209.5 -87t210 87q74 74 85 174v38q0 9 1 18q-6 110 -86 189q-87 87 -210 87t-209.5 -86.5t-86.5 -209.5z" />
<glyph unicode="&#xe1;" d="M100 499q0 207 146 353t353 146t353 -146q144 -144 146 -348v-406q0 -58 -30 -78t-72 -20t-72 20t-30 76q-128 -96 -295 -96q-207 0 -353 146t-146 353zM303 500q0 -123 86.5 -210t209.5 -87t210 87q74 74 85 174v38q0 9 1 18q-6 110 -86 189q-87 87 -210 87 t-209.5 -86.5t-86.5 -209.5zM441 1131q0 14 4 28q11 40 48 61l268 155q25 14 51 14q13 0 27 -3q40 -11 62 -48q14 -24 14 -49q0 -14 -4 -28q-11 -41 -48 -62l-268 -155q-24 -14 -50 -14q-14 0 -28 4q-41 11 -62 47q-14 24 -14 50z" />
<glyph unicode="&#xe2;" d="M100 499q0 207 146 353t353 146t353 -146q144 -144 146 -348v-406q0 -58 -30 -78t-72 -20t-72 20t-30 76q-128 -96 -295 -96q-207 0 -353 146t-146 353zM303 500q0 -123 86.5 -210t209.5 -87t210 87q74 74 85 174v38q0 9 1 18q-6 110 -86 189q-87 87 -210 87 t-209.5 -86.5t-86.5 -209.5zM348 1150l1 1q0 42 30 72l148 148q30 30 72 31q19 0 35 -6q22 -8 39 -25l148 -148q30 -30 30 -72q0 -43 -30 -72q-30 -31 -71 -31l-1 1q-42 0 -72 30l-77 77l-77 -77q-30 -30 -72 -30q-43 0 -72 30q-31 30 -31 71z" />
<glyph unicode="&#xe3;" d="M100 499q0 207 146 353t353 146t353 -146q144 -144 146 -348v-406q0 -58 -30 -78t-72 -20t-72 20t-30 76q-128 -96 -295 -96q-207 0 -353 146t-146 353zM274 1200q0 83 58.5 141.5t141.5 58.5t141.5 -58.5t58.5 -141.5q0 -20 14.5 -35t35.5 -15t35.5 15t14.5 35 q0 31 22 53t53 22t53 -22t22 -53q0 -83 -58.5 -141.5t-141.5 -58.5t-141.5 58.5t-58.5 141.5q0 20 -14.5 35t-35.5 15t-35.5 -15t-14.5 -35q0 -31 -22 -53t-53 -22t-53 22t-22 53zM303 500q0 -123 86.5 -210t209.5 -87t210 87q74 74 85 174v38q0 9 1 18q-6 110 -86 189 q-87 87 -210 87t-209.5 -86.5t-86.5 -209.5z" />
<glyph unicode="&#xe4;" d="M100 499q0 207 146 353t353 146t353 -146q144 -144 146 -348v-406q0 -58 -30 -78t-72 -20t-72 20t-30 76q-128 -96 -295 -96q-207 0 -353 146t-146 353zM303 500q0 -123 86.5 -210t209.5 -87t210 87q74 74 85 174v38q0 9 1 18q-6 110 -86 189q-87 87 -210 87 t-209.5 -86.5t-86.5 -209.5zM349 1200q0 42 29.5 71t70.5 29t70.5 -29t29.5 -71q0 -41 -29.5 -70.5t-70.5 -29.5t-70.5 29.5t-29.5 70.5zM649 1200q0 42 29.5 71t70.5 29t70.5 -29t29.5 -71q0 -41 -29.5 -70.5t-70.5 -29.5t-70.5 29.5t-29.5 70.5z" />
<glyph unicode="&#xe5;" d="M100 499q0 207 146 353t353 146t353 -146q144 -144 146 -348v-406q0 -58 -30 -78t-72 -20t-72 20t-30 76q-128 -96 -295 -96q-207 0 -353 146t-146 353zM303 500q0 -123 86.5 -210t209.5 -87t210 87q74 74 85 174v38q0 9 1 18q-6 110 -86 189q-87 87 -210 87 t-209.5 -86.5t-86.5 -209.5zM401 1223q0 82 58 140t140 58t140 -58t58 -140t-58 -140t-140 -58t-140 58t-58 140zM516 1223q0 -34 24 -58.5t58 -24.5q35 0 59 24.5t24 58.5t-24 58t-59 24q-34 0 -58 -24t-24 -58z" />
<glyph unicode="&#xe6;" horiz-adv-x="1898" d="M100 499q0 207 146 353t353 146t353 -146q26 -26 47 -53q21 27 47 53q146 146 353 146t352 -145l-1 -1q0 -1 1 -1q29 -29 29 -71q0 -41 -29 -70l-286 -284q-30 -29 -72 -29q-43 0 -73 29q-29 30 -29 73q0 42 29 72l200 200q-55 25 -121 25q-123 0 -210 -86.5t-87 -209.5 t87 -210t210 -87q122 0 209 86l2 2q29 29 71 29t72 -29.5t30 -71.5t-30 -72l-2 -2q-145 -145 -352 -145q-171 0 -301 100v-2q0 -58 -30 -78t-72 -20t-72 20t-30 76q-128 -96 -295 -96q-207 0 -353 146t-146 353zM303 500q0 -123 86.5 -210t209.5 -87t210 87q74 74 85 174v38 q0 9 1 18q-6 110 -86 189q-87 87 -210 87t-209.5 -86.5t-86.5 -209.5z" />
<glyph unicode="&#xe7;" horiz-adv-x="1097" d="M100 499q0 207 146 353t353 146t352 -145l-1 -1q0 -1 1 -1q29 -29 29 -71q0 -41 -29.5 -70.5t-70.5 -29.5q-42 0 -71 30h-1q-86 86 -209 86t-210 -86.5t-87 -209.5t87 -210t210 -87q122 0 209 86l2 2q29 29 71 29t72 -29.5t30 -71.5t-30 -72l-2 -2q-126 -126 -299 -143 q2 -8 2 -18v-25q29 -14 54 -38q54 -56 54 -133q0 -78 -54.5 -132.5t-132.5 -54.5q-32 0 -53.5 21.5t-21.5 53.5q0 30 21.5 52.5t53.5 22.5q16 0 26.5 10.5t10.5 26.5t-10 27q-8 8 -19 10h-6q-16 0 -30 6q-14 5 -25 17q-22 21 -22 53q0 6 1 13v70q0 13 4 24q-148 27 -259 138 q-146 146 -146 353z" />
<glyph unicode="&#xe8;" horiz-adv-x="1097" d="M100 499q0 207 146 353t353 146t352 -145l-1 -1q0 -1 1 -1q29 -29 29 -71q0 -41 -29 -70l-286 -284q-30 -29 -72 -29q-43 0 -73 29q-29 30 -29 73q0 42 29 72l200 200q-55 25 -121 25q-123 0 -210 -86.5t-87 -209.5t87 -210t210 -87q122 0 209 86l2 2q29 29 71 29 t72 -29.5t30 -71.5t-30 -72l-2 -2q-145 -145 -352 -145t-353 146t-146 353zM226 1289q0 25 14 49q22 37 62 48q14 3 27 3q26 0 51 -14l268 -155q37 -21 48 -61q4 -14 4 -28q0 -26 -14 -50q-21 -36 -62 -47q-14 -4 -28 -4q-26 0 -50 14l-268 155q-37 21 -48 62q-4 14 -4 28z " />
<glyph unicode="&#xe9;" horiz-adv-x="1097" d="M100 499q0 207 146 353t353 146t352 -145l-1 -1q0 -1 1 -1q29 -29 29 -71q0 -41 -29 -70l-286 -284q-30 -29 -72 -29q-43 0 -73 29q-29 30 -29 73q0 42 29 72l200 200q-55 25 -121 25q-123 0 -210 -86.5t-87 -209.5t87 -210t210 -87q122 0 209 86l2 2q29 29 71 29 t72 -29.5t30 -71.5t-30 -72l-2 -2q-145 -145 -352 -145t-353 146t-146 353zM384 1131q0 14 4 28q11 40 48 61l268 155q25 14 51 14q13 0 27 -3q40 -11 62 -48q14 -24 14 -49q0 -14 -4 -28q-11 -41 -48 -62l-268 -155q-24 -14 -50 -14q-14 0 -28 4q-41 11 -62 47 q-14 24 -14 50z" />
<glyph unicode="&#xea;" horiz-adv-x="1097" d="M100 499q0 207 146 353t353 146t352 -145l-1 -1q0 -1 1 -1q29 -29 29 -71q0 -41 -29 -70l-286 -284q-30 -29 -72 -29q-43 0 -73 29q-29 30 -29 73q0 42 29 72l200 200q-55 25 -121 25q-123 0 -210 -86.5t-87 -209.5t87 -210t210 -87q122 0 209 86l2 2q29 29 71 29 t72 -29.5t30 -71.5t-30 -72l-2 -2q-145 -145 -352 -145t-353 146t-146 353zM290 1150l1 1q0 42 30 72l148 148q30 30 72 31q19 0 35 -6q22 -8 39 -25l148 -148q30 -30 30 -72q0 -43 -30 -72q-30 -31 -71 -31l-1 1q-42 0 -72 30l-77 77l-77 -77q-30 -30 -72 -30q-43 0 -72 30 q-31 30 -31 71z" />
<glyph unicode="&#xeb;" horiz-adv-x="1097" d="M100 499q0 207 146 353t353 146t352 -145l-1 -1q0 -1 1 -1q29 -29 29 -71q0 -41 -29 -70l-286 -284q-30 -29 -72 -29q-43 0 -73 29q-29 30 -29 73q0 42 29 72l200 200q-55 25 -121 25q-123 0 -210 -86.5t-87 -209.5t87 -210t210 -87q122 0 209 86l2 2q29 29 71 29 t72 -29.5t30 -71.5t-30 -72l-2 -2q-145 -145 -352 -145t-353 146t-146 353zM292 1200q0 42 29.5 71t70.5 29t70.5 -29t29.5 -71q0 -41 -29.5 -70.5t-70.5 -29.5t-70.5 29.5t-29.5 70.5zM592 1200q0 42 29.5 71t70.5 29t70.5 -29t29.5 -71q0 -41 -29.5 -70.5t-70.5 -29.5 t-70.5 29.5t-29.5 70.5z" />
<glyph unicode="&#xec;" horiz-adv-x="401" d="M-114 1289q0 25 14 49q22 37 62 48q14 3 27 3q26 0 51 -14l268 -155q37 -21 48 -61q4 -14 4 -28q0 -26 -14 -50q-21 -36 -62 -47q-14 -4 -28 -4q-26 0 -50 14l-268 155q-37 21 -48 62q-4 14 -4 28zM100 102v800q0 42 30 72t72 30t72 -30t30 -72v-800q0 -42 -30 -72 t-72 -30t-72 30t-30 72z" />
<glyph unicode="&#xed;" horiz-adv-x="401" d="M44 1131q0 14 4 28q11 40 48 61l268 155q25 14 51 14q13 0 27 -3q40 -11 62 -48q14 -24 14 -49q0 -14 -4 -28q-11 -41 -48 -62l-268 -155q-24 -14 -50 -14q-14 0 -28 4q-41 11 -62 47q-14 24 -14 50zM100 102v800q0 42 30 72t72 30t72 -30t30 -72v-800q0 -42 -30 -72 t-72 -30t-72 30t-30 72z" />
<glyph unicode="&#xee;" horiz-adv-x="401" d="M-49 1150l1 1q0 42 30 72l148 148q30 30 72 31q19 0 35 -6q22 -8 39 -25l148 -148q30 -30 30 -72q0 -43 -30 -72q-30 -31 -71 -31l-1 1q-42 0 -72 30l-77 77l-77 -77q-30 -30 -72 -30q-43 0 -72 30q-31 30 -31 71zM101 102v800q0 42 30 72t72 30t72 -30t30 -72v-800 q0 -42 -30 -72t-72 -30t-72 30t-30 72z" />
<glyph unicode="&#xef;" horiz-adv-x="401" d="M-48 1200q0 42 29.5 71t70.5 29t70.5 -29t29.5 -71q0 -41 -29.5 -70.5t-70.5 -29.5t-70.5 29.5t-29.5 70.5zM100 102v800q0 42 30 72t72 30t72 -30t30 -72v-800q0 -42 -30 -72t-72 -30t-72 30t-30 72zM252 1200q0 42 29.5 71t70.5 29t70.5 -29t29.5 -71 q0 -41 -29.5 -70.5t-70.5 -29.5t-70.5 29.5t-29.5 70.5z" />
<glyph unicode="&#xf0;" d="M100 450q0 186 132 318q128 129 309 132l-102 145l-80 -56q-27 -19 -58 -19q-9 0 -18 2q-42 7 -66 42q-19 26 -19 57q0 10 2 19q7 42 42 66l80 56l-82 117q-18 27 -18 57q0 10 2 20q7 41 41 65q27 19 58 19q9 0 19 -2q41 -7 65 -42l82 -117l80 56q27 19 58 19q9 0 19 -2 q41 -7 65 -42q19 -26 19 -57q0 -10 -2 -19q-7 -42 -42 -66l-80 -56l318 -453q10 -15 15 -30q61 -102 61 -229q0 -186 -132 -318t-318 -132q-187 0 -318.5 132t-131.5 318zM300 450q0 -103 73 -176.5t177 -73.5q103 0 176.5 73.5t73.5 176.5q0 104 -73.5 177t-176.5 73 q-104 0 -177 -73t-73 -177z" />
<glyph unicode="&#xf1;" d="M100 118v386q2 204 146 348q136 136 347 148h16q211 -12 347 -148q144 -144 146 -348v-386q0 -58 -30 -88t-72 -30t-72 30t-30 86v386q0 9 1 18q-6 110 -86 189q-87 87 -210 87h-4q-123 0 -210 -87q-80 -79 -86 -189q1 -9 1 -18v-386q0 -56 -30 -86t-72 -30t-72 30 t-30 88zM276 1200q0 83 58.5 141.5t141.5 58.5t141.5 -58.5t58.5 -141.5q0 -20 14.5 -35t35.5 -15t35.5 15t14.5 35q0 31 22 53t53 22t53 -22t22 -53q0 -83 -58.5 -141.5t-141.5 -58.5t-141.5 58.5t-58.5 141.5q0 20 -14.5 35t-35.5 15t-35.5 -15t-14.5 -35q0 -31 -22 -53 t-53 -22t-53 22t-22 53z" />
<glyph unicode="&#xf2;" d="M100 499q0 207 146 353t353 146t353 -146t146 -353t-146 -353t-353 -146t-353 146t-146 353zM283 1289q0 25 14 49q22 37 62 48q14 3 27 3q26 0 51 -14l268 -155q37 -21 48 -61q4 -14 4 -28q0 -26 -14 -50q-21 -36 -62 -47q-14 -4 -28 -4q-26 0 -50 14l-268 155 q-37 21 -48 62q-4 14 -4 28zM302 500q0 -123 87 -210t210 -87t209.5 87t86.5 210t-86.5 209.5t-209.5 86.5t-210 -86.5t-87 -209.5z" />
<glyph unicode="&#xf3;" d="M100 499q0 207 146 353t353 146t353 -146t146 -353t-146 -353t-353 -146t-353 146t-146 353zM302 500q0 -123 87 -210t210 -87t209.5 87t86.5 210t-86.5 209.5t-209.5 86.5t-210 -86.5t-87 -209.5zM441 1131q0 14 4 28q11 40 48 61l268 155q25 14 51 14q13 0 27 -3 q40 -11 62 -48q14 -24 14 -49q0 -14 -4 -28q-11 -41 -48 -62l-268 -155q-24 -14 -50 -14q-14 0 -28 4q-41 11 -62 47q-14 24 -14 50z" />
<glyph unicode="&#xf4;" d="M100 499q0 207 146 353t353 146t353 -146t146 -353t-146 -353t-353 -146t-353 146t-146 353zM302 500q0 -123 87 -210t210 -87t209.5 87t86.5 210t-86.5 209.5t-209.5 86.5t-210 -86.5t-87 -209.5zM348 1150l1 1q0 42 30 72l148 148q30 30 72 31q19 0 35 -6q22 -8 39 -25 l148 -148q30 -30 30 -72q0 -43 -30 -72q-30 -31 -71 -31l-1 1q-42 0 -72 30l-77 77l-77 -77q-30 -30 -72 -30q-43 0 -72 30q-31 30 -31 71z" />
<glyph unicode="&#xf5;" d="M100 499q0 207 146 353t353 146t353 -146t146 -353t-146 -353t-353 -146t-353 146t-146 353zM274 1200q0 83 58.5 141.5t141.5 58.5t141.5 -58.5t58.5 -141.5q0 -20 14.5 -35t35.5 -15t35.5 15t14.5 35q0 31 22 53t53 22t53 -22t22 -53q0 -83 -58.5 -141.5t-141.5 -58.5 t-141.5 58.5t-58.5 141.5q0 20 -14.5 35t-35.5 15t-35.5 -15t-14.5 -35q0 -31 -22 -53t-53 -22t-53 22t-22 53zM302 500q0 -123 87 -210t210 -87t209.5 87t86.5 210t-86.5 209.5t-209.5 86.5t-210 -86.5t-87 -209.5z" />
<glyph unicode="&#xf6;" d="M100 499q0 207 146 353t353 146t353 -146t146 -353t-146 -353t-353 -146t-353 146t-146 353zM302 500q0 -123 87 -210t210 -87t209.5 87t86.5 210t-86.5 209.5t-209.5 86.5t-210 -86.5t-87 -209.5zM349 1200q0 42 29.5 71t70.5 29t70.5 -29t29.5 -71q0 -41 -29.5 -70.5 t-70.5 -29.5t-70.5 29.5t-29.5 70.5zM649 1200q0 42 29.5 71t70.5 29t70.5 -29t29.5 -71q0 -41 -29.5 -70.5t-70.5 -29.5t-70.5 29.5t-29.5 70.5z" />
<glyph unicode="&#xf7;" horiz-adv-x="801" d="M97 696q0 42 29.5 72t72.5 30h400q42 0 72 -30t30 -72t-30 -72t-72 -30h-400q-43 0 -72.5 30t-29.5 72zM300 400q0 42 30 72t72 30t72 -30t30 -72t-30 -72t-72 -30t-72 30t-30 72zM300 1000q0 42 30 72t72 30t72 -30t30 -72t-30 -72t-72 -30t-72 30t-30 72z" />
<glyph unicode="&#xf8;" d="M100 499q0 207 146 353t353 146q87 0 164 -26l148 257q21 37 62 48q14 4 28 4q25 0 49 -14q37 -22 48 -62q4 -14 4 -28q0 -26 -14 -50l-151 -261q8 -7 15 -14q146 -146 146 -353t-146 -353t-353 -146q-79 0 -149 21l-157 -271q-21 -36 -62 -47q-14 -4 -28 -4 q-26 0 -50 14q-36 21 -47 62q-4 14 -4 28q0 25 14 49l156 270q-13 11 -26 24q-146 146 -146 353zM302 500q0 -114 74 -197l282 488q-28 5 -59 5q-123 0 -210 -86.5t-87 -209.5zM556 206q21 -3 43 -3q123 0 209.5 87t86.5 210q0 105 -63 183z" />
<glyph unicode="&#xf9;" d="M100 496v386q0 58 30 88t72 30t72 -30t30 -86v-386q0 -9 -1 -18q6 -110 86 -189q87 -87 210 -87h4q123 0 210 87q80 79 86 189q-1 9 -1 18v386q0 56 30 86t72 30t72 -30t30 -88v-386q-2 -204 -146 -348q-136 -136 -347 -148h-16q-211 12 -347 148q-144 144 -146 348z M285 1289q0 25 14 49q22 37 62 48q14 3 27 3q26 0 51 -14l268 -155q37 -21 48 -61q4 -14 4 -28q0 -26 -14 -50q-21 -36 -62 -47q-14 -4 -28 -4q-26 0 -50 14l-268 155q-37 21 -48 62q-4 14 -4 28z" />
<glyph unicode="&#xfa;" d="M100 496v386q0 58 30 88t72 30t72 -30t30 -86v-386q0 -9 -1 -18q6 -110 86 -189q87 -87 210 -87h4q123 0 210 87q80 79 86 189q-1 9 -1 18v386q0 56 30 86t72 30t72 -30t30 -88v-386q-2 -204 -146 -348q-136 -136 -347 -148h-16q-211 12 -347 148q-144 144 -146 348z M443 1131q0 14 4 28q11 40 48 61l268 155q25 14 51 14q13 0 27 -3q40 -11 62 -48q14 -24 14 -49q0 -14 -4 -28q-11 -41 -48 -62l-268 -155q-24 -14 -50 -14q-14 0 -28 4q-41 11 -62 47q-14 24 -14 50z" />
<glyph unicode="&#xfb;" d="M100 496v386q0 58 30 88t72 30t72 -30t30 -86v-386q0 -9 -1 -18q6 -110 86 -189q87 -87 210 -87h4q123 0 210 87q80 79 86 189q-1 9 -1 18v386q0 56 30 86t72 30t72 -30t30 -88v-386q-2 -204 -146 -348q-136 -136 -347 -148h-16q-211 12 -347 148q-144 144 -146 348z M350 1150l1 1q0 42 30 72l148 148q30 30 72 31q19 0 35 -6q22 -8 39 -25l148 -148q30 -30 30 -72q0 -43 -30 -72q-30 -31 -71 -31l-1 1q-42 0 -72 30l-77 77l-77 -77q-30 -30 -72 -30q-43 0 -72 30q-31 30 -31 71z" />
<glyph unicode="&#xfc;" d="M100 496v386q0 58 30 88t72 30t72 -30t30 -86v-386q0 -9 -1 -18q6 -110 86 -189q87 -87 210 -87h4q123 0 210 87q80 79 86 189q-1 9 -1 18v386q0 56 30 86t72 30t72 -30t30 -88v-386q-2 -204 -146 -348q-136 -136 -347 -148h-16q-211 12 -347 148q-144 144 -146 348z M351 1200q0 42 29.5 71t70.5 29t70.5 -29t29.5 -71q0 -41 -29.5 -70.5t-70.5 -29.5t-70.5 29.5t-29.5 70.5zM651 1200q0 42 29.5 71t70.5 29t70.5 -29t29.5 -71q0 -41 -29.5 -70.5t-70.5 -29.5t-70.5 29.5t-29.5 70.5z" />
<glyph unicode="&#xfd;" d="M100 900q0 42 29 71t71 29q41 0 71 -29q16 -16 23 -37l306 -611l305 611q7 20 24 37q29 29 71 29q41 0 70.5 -29t29.5 -71q0 -24 -10 -44l-592 -1189q-10 -20 -27 -37q-30 -30 -71 -30q-42 0 -71 29.5t-29 70.5q0 32 13 58l175 342l-376 752q-12 22 -12 48zM442 1131 q0 14 4 28q11 40 48 61l268 155q25 14 51 14q13 0 27 -3q40 -11 62 -48q14 -24 14 -49q0 -14 -4 -28q-11 -41 -48 -62l-268 -155q-24 -14 -50 -14q-14 0 -28 4q-41 11 -62 47q-14 24 -14 50z" />
<glyph unicode="&#xfe;" d="M100 -298v1490q0 42 30 72t72 30t72 -30t30 -72v-290q128 96 295 96q207 0 353 -146t146 -353t-146 -353t-353 -146q-167 0 -295 96v-394q0 -42 -30 -72t-72 -30t-72 30t-30 72zM304 464q11 -100 85 -174q87 -87 210 -87t209.5 87t86.5 210t-86.5 209.5t-209.5 86.5 t-210 -86q-75 -75 -85 -177v-69z" />
<glyph unicode="&#xff;" d="M100 900q0 42 29 71t71 29q41 0 71 -29q16 -16 23 -37l306 -611l305 611q7 20 24 37q29 29 71 29q41 0 70.5 -29t29.5 -71q0 -24 -10 -44l-592 -1189q-10 -20 -27 -37q-30 -30 -71 -30q-42 0 -71 29.5t-29 70.5q0 32 13 58l175 342l-376 752q-12 22 -12 48zM350 1200 q0 42 29.5 71t70.5 29t70.5 -29t29.5 -71q0 -41 -29.5 -70.5t-70.5 -29.5t-70.5 29.5t-29.5 70.5zM650 1200q0 42 29.5 71t70.5 29t70.5 -29t29.5 -71q0 -41 -29.5 -70.5t-70.5 -29.5t-70.5 29.5t-29.5 70.5z" />
<glyph unicode="&#x152;" horiz-adv-x="2418" d="M100 717q0 297 210 507t507 210t507 -210l6 -6v114q0 42 30 72t72 30h790q42 0 72 -30t30 -72t-30 -72t-72 -30h-688v-226h298q42 0 72 -30t30 -72t-30 -72t-72 -30h-298v-596h688q42 0 72 -30t30 -72t-30 -72t-72 -30h-790q-42 0 -72 30t-30 72v114l-6 -6 q-210 -210 -507 -210t-507 210t-210 507zM304 717q0 -212 150 -362.5t363 -150.5q212 0 362.5 150.5t150.5 362.5t-150.5 362.5t-362.5 150.5q-213 0 -363 -150.5t-150 -362.5z" />
<glyph unicode="&#x153;" horiz-adv-x="1918" d="M100 499q0 207 146 353t353 146t353 -146q32 -32 57 -68q26 36 58 68q146 146 353 146t352 -145l-1 -1q0 -1 1 -1q29 -29 29 -71q0 -41 -29 -70l-286 -284q-30 -29 -72 -29q-43 0 -73 29q-29 30 -29 73q0 42 29 72l200 200q-55 25 -121 25q-123 0 -210 -86.5t-87 -209.5 t87 -210t210 -87q122 0 209 86l2 2q29 29 71 29t72 -29.5t30 -71.5t-30 -72l-2 -2q-145 -145 -352 -145t-353 146q-32 32 -58 68q-25 -36 -57 -68q-146 -146 -353 -146t-353 146t-146 353zM302 500q0 -123 87 -210t210 -87t209.5 87t86.5 210t-86.5 209.5t-209.5 86.5 t-210 -86.5t-87 -209.5z" />
<glyph unicode="&#x2c6;" horiz-adv-x="696" d="M99 1150l1 1q0 42 30 72l148 148q30 30 72 31q19 0 35 -6q22 -8 39 -25l148 -148q30 -30 30 -72q0 -43 -30 -72q-30 -31 -71 -31l-1 1q-42 0 -72 30l-77 77l-77 -77q-30 -30 -72 -30q-43 0 -72 30q-31 30 -31 71z" />
<glyph unicode="&#x2dc;" horiz-adv-x="886" d="M100 1200q0 83 58.5 141.5t141.5 58.5t141.5 -58.5t58.5 -141.5q0 -20 14.5 -35t35.5 -15t35.5 15t14.5 35q0 31 22 53t53 22t53 -22t22 -53q0 -83 -58.5 -141.5t-141.5 -58.5t-141.5 58.5t-58.5 141.5q0 20 -14.5 35t-35.5 15t-35.5 -15t-14.5 -35q0 -31 -22 -53 t-53 -22t-53 22t-22 53z" />
<glyph unicode="&#x2000;" horiz-adv-x="916" />
<glyph unicode="&#x2001;" horiz-adv-x="1832" />
<glyph unicode="&#x2002;" horiz-adv-x="916" />
<glyph unicode="&#x2003;" horiz-adv-x="1832" />
<glyph unicode="&#x2004;" horiz-adv-x="610" />
<glyph unicode="&#x2005;" horiz-adv-x="458" />
<glyph unicode="&#x2006;" horiz-adv-x="305" />
<glyph unicode="&#x2007;" horiz-adv-x="305" />
<glyph unicode="&#x2008;" horiz-adv-x="229" />
<glyph unicode="&#x2009;" horiz-adv-x="366" />
<glyph unicode="&#x200a;" horiz-adv-x="101" />
<glyph unicode="&#x2010;" horiz-adv-x="801" d="M100 696q0 42 30 72t72 30h400q42 0 72 -30t30 -72t-30 -72t-72 -30h-400q-42 0 -72 30t-30 72z" />
<glyph unicode="&#x2011;" horiz-adv-x="801" d="M100 696q0 42 30 72t72 30h400q42 0 72 -30t30 -72t-30 -72t-72 -30h-400q-42 0 -72 30t-30 72z" />
<glyph unicode="&#x2012;" horiz-adv-x="801" d="M100 696q0 42 30 72t72 30h400q42 0 72 -30t30 -72t-30 -72t-72 -30h-400q-42 0 -72 30t-30 72z" />
<glyph unicode="&#x2013;" horiz-adv-x="1237" d="M100 502q0 42 30 72t72 30h840q42 0 72 -30t30 -72t-30 -72t-72 -30h-840q-42 0 -72 30t-30 72z" />
<glyph unicode="&#x2014;" horiz-adv-x="2003" d="M96 494q0 42 30 72t72 30h1590q42 0 72 -30t30 -72t-30 -72t-72 -30h-1590q-42 0 -72 30t-30 72z" />
<glyph unicode="&#x2018;" horiz-adv-x="499" d="M100 1300q0 42 29 71t71 29q41 0 71 -29q17 -17 24 -39l92 -181q13 -23 13 -51q0 -41 -29.5 -70.5t-70.5 -29.5q-42 0 -71 30q-16 15 -23 35l-91 182q-15 23 -15 53z" />
<glyph unicode="&#x2019;" horiz-adv-x="557" d="M100 1100q0 -41 29.5 -70.5t70.5 -29.5q42 0 71 30q16 15 23 35l91 182q15 23 15 53q0 42 -29 71t-71 29q-41 0 -71 -29q-17 -17 -24 -39l-92 -181q-13 -23 -13 -51z" />
<glyph unicode="&#x201a;" horiz-adv-x="557" d="M100 -100q0 -41 29.5 -70.5t70.5 -29.5q42 0 71 30q16 15 23 35l91 182q15 23 15 53q0 42 -29 71t-71 29q-41 0 -71 -29q-17 -17 -24 -39l-92 -181q-13 -23 -13 -51z" />
<glyph unicode="&#x201c;" horiz-adv-x="919" d="M100 1300q0 42 29 71t71 29q41 0 71 -29q17 -17 24 -39l92 -181q13 -23 13 -51q0 -41 -29.5 -70.5t-70.5 -29.5q-42 0 -71 30q-16 15 -23 35l-91 182q-15 23 -15 53zM520 1300q0 42 29 71t71 29q41 0 71 -29q17 -17 24 -39l92 -181q13 -23 13 -51q0 -41 -29.5 -70.5 t-70.5 -29.5q-42 0 -71 30q-16 15 -23 35l-91 182q-15 23 -15 53z" />
<glyph unicode="&#x201d;" horiz-adv-x="977" d="M100 1100q0 -41 29.5 -70.5t70.5 -29.5q42 0 71 30q16 15 23 35l91 182q15 23 15 53q0 42 -29 71t-71 29q-41 0 -71 -29q-17 -17 -24 -39l-92 -181q-13 -23 -13 -51zM520 1100q0 -41 29.5 -70.5t70.5 -29.5q42 0 71 30q16 15 23 35l91 182q15 23 15 53q0 42 -29 71 t-71 29q-41 0 -71 -29q-17 -17 -24 -39l-92 -181q-13 -23 -13 -51z" />
<glyph unicode="&#x201e;" horiz-adv-x="977" d="M100 -100q0 -41 29.5 -70.5t70.5 -29.5q42 0 71 30q16 15 23 35l91 182q15 23 15 53q0 42 -29 71t-71 29q-41 0 -71 -29q-17 -17 -24 -39l-92 -181q-13 -23 -13 -51zM520 -100q0 -41 29.5 -70.5t70.5 -29.5q42 0 71 30q16 15 23 35l91 182q15 23 15 53q0 42 -29 71 t-71 29q-41 0 -71 -29q-17 -17 -24 -39l-92 -181q-13 -23 -13 -51z" />
<glyph unicode="&#x2022;" horiz-adv-x="597" d="M100 600q0 83 58.5 141.5t141.5 58.5t141.5 -58.5t58.5 -141.5q0 -82 -58.5 -141t-141.5 -59t-141.5 59t-58.5 141z" />
<glyph unicode="&#x2026;" d="M100 102q0 42 30 72t72 30t72 -30t30 -72t-30 -72t-72 -30t-72 30t-30 72zM493 102q0 42 30 72t72 30t72 -30t30 -72t-30 -72t-72 -30t-72 30t-30 72zM896 102q0 42 30 72t72 30t72 -30t30 -72t-30 -72t-72 -30t-72 30t-30 72z" />
<glyph unicode="&#x202f;" horiz-adv-x="366" />
<glyph unicode="&#x2039;" horiz-adv-x="597" d="M100 700q0 -30 16 -55l-2 -1l200 -300l2 1q6 -8 13 -15q30 -30 71 -30q42 0 71 29.5t29 70.5q0 32 -17 57l-162 244l156 236q23 27 23 63q0 42 -29 71t-71 29q-41 0 -71 -29q-7 -7 -12 -15h-1l-200 -301q-16 -24 -16 -55z" />
<glyph unicode="&#x203a;" horiz-adv-x="597" d="M100 400q0 32 17 57l162 244l-156 236q-23 27 -23 63q0 42 29 71t71 29q41 0 71 -29q7 -7 12 -15h1l200 -301q16 -24 16 -55q0 -30 -16 -55l2 -1l-200 -300l-2 1q-6 -8 -13 -15q-30 -30 -71 -30q-42 0 -71 29.5t-29 70.5z" />
<glyph unicode="&#x205f;" horiz-adv-x="458" />
<glyph unicode="&#x20ac;" d="M79 503q0 42 30 72t72 30h126q-7 54 -7 112q0 47 4 92h-123q-42 0 -72 30t-30 72t30 72t72 30h171q45 115 127 211q178 210 430 210q242 0 407 -162l-1 -1l2 -2q26 -30 26 -72t-25.5 -72t-81.5 -30q-36 0 -61 30l-2 2l-1 -1q-113 104 -263 104q-161 0 -288 -150 q-27 -32 -49 -67h299q42 0 72 -30t30 -72t-30 -72t-72 -30h-372q-6 -44 -6 -92q0 -58 10 -112h368q42 0 72 -30t30 -72t-30 -72t-72 -30h-286q16 -24 36 -46q127 -151 288 -151q150 0 263 104l1 -1l2 2q25 30 61 30q56 0 81.5 -30t25.5 -72t-26 -72l-2 -2l1 -1 q-165 -162 -407 -162q-252 0 -430 210q-75 88 -119 191h-179q-42 0 -72 30t-30 72z" />
<glyph unicode="&#x2122;" horiz-adv-x="1613" d="M110 1333q0 44 32 72.5t74 28.5h358q42 0 74 -28.5t32 -72.5t-32 -72.5t-74 -28.5h-72v-392q0 -44 -32 -72.5t-74 -28.5t-74 28.5t-32 72.5v392h-74q-42 0 -74 28.5t-32 72.5zM735 841v492q0 44 32 72.5t74 28.5t69 -25q13 -8 15 -12l185 -146l184 151l16 14q32 18 71 18 q42 0 74 -28.5t32 -72.5v-492q0 -44 -32 -72.5t-74 -28.5t-74 28.5t-32 72.5v280l-97 -76q-29 -25 -68 -25t-163 99v-278q0 -44 -32 -72.5t-74 -28.5t-74 28.5t-32 72.5z" />
<glyph unicode="&#x25fc;" horiz-adv-x="1000" d="M0 0v1000h1000v-1000h-1000z" />
</font>
</defs>
</svg>
